<mxfile host="app.diagrams.net" agent="Mozilla/5.0 (Windows NT 10.0; Win64; x64) AppleWebKit/537.36 (KHTML, like Gecko) Chrome/131.0.0.0 Safari/537.36" version="25.0.1">
  <diagram name="Page-1" id="7FZMvqHeIF7b9mxZ489W">
    <mxGraphModel dx="1050" dy="522" grid="1" gridSize="10" guides="1" tooltips="1" connect="1" arrows="1" fold="1" page="1" pageScale="1" pageWidth="850" pageHeight="1100" math="0" shadow="0">
      <root>
        <mxCell id="0" />
        <mxCell id="1" parent="0" />
        <mxCell id="-MbyYuFJOytPRvi4rKHy-29" value="" style="sketch=0;points=[[0,0,0],[0.25,0,0],[0.5,0,0],[0.75,0,0],[1,0,0],[0,1,0],[0.25,1,0],[0.5,1,0],[0.75,1,0],[1,1,0],[0,0.25,0],[0,0.5,0],[0,0.75,0],[1,0.25,0],[1,0.5,0],[1,0.75,0]];outlineConnect=0;fontColor=#46495D;fillColor=#B2C9AB;strokeColor=#788AA3;dashed=0;verticalLabelPosition=bottom;verticalAlign=top;align=center;html=1;fontSize=12;fontStyle=0;aspect=fixed;shape=mxgraph.aws4.resourceIcon;resIcon=mxgraph.aws4.documentdb_with_mongodb_compatibility;labelBackgroundColor=none;" parent="1" vertex="1">
          <mxGeometry x="726" y="211" width="78" height="78" as="geometry" />
        </mxCell>
        <mxCell id="Yl6aDrCVdsE_vcPUF4tV-1" value="Catalog" style="swimlane;whiteSpace=wrap;html=1;fillColor=#d5e8d4;strokeColor=#82b366;startSize=40;" parent="1" vertex="1">
          <mxGeometry x="80" y="50" width="600" height="372" as="geometry" />
        </mxCell>
        <mxCell id="-MbyYuFJOytPRvi4rKHy-1" value="Catalog.API" style="rounded=0;whiteSpace=wrap;html=1;labelBackgroundColor=none;fillColor=#B2C9AB;strokeColor=#788AA3;fontColor=#46495D;" parent="Yl6aDrCVdsE_vcPUF4tV-1" vertex="1">
          <mxGeometry x="240" y="50" width="120" height="60" as="geometry" />
        </mxCell>
        <mxCell id="J8cX9gx4JbQNp0mi-t6i-2" value="" style="edgeStyle=orthogonalEdgeStyle;rounded=0;orthogonalLoop=1;jettySize=auto;html=1;" edge="1" parent="Yl6aDrCVdsE_vcPUF4tV-1" source="Yl6aDrCVdsE_vcPUF4tV-2" target="Yl6aDrCVdsE_vcPUF4tV-3">
          <mxGeometry relative="1" as="geometry" />
        </mxCell>
        <mxCell id="Yl6aDrCVdsE_vcPUF4tV-2" value="Catalog.Application" style="rounded=0;whiteSpace=wrap;html=1;labelBackgroundColor=none;fillColor=#B2C9AB;strokeColor=#788AA3;fontColor=#46495D;" parent="Yl6aDrCVdsE_vcPUF4tV-1" vertex="1">
          <mxGeometry x="239" y="160" width="160" height="60" as="geometry" />
        </mxCell>
        <mxCell id="Yl6aDrCVdsE_vcPUF4tV-3" value="Catalog.Domain" style="rounded=0;whiteSpace=wrap;html=1;labelBackgroundColor=none;fillColor=#B2C9AB;strokeColor=#788AA3;fontColor=#46495D;" parent="Yl6aDrCVdsE_vcPUF4tV-1" vertex="1">
          <mxGeometry x="259" y="250" width="120" height="60" as="geometry" />
        </mxCell>
        <mxCell id="J8cX9gx4JbQNp0mi-t6i-7" value="" style="edgeStyle=orthogonalEdgeStyle;rounded=0;orthogonalLoop=1;jettySize=auto;html=1;dashed=1;" edge="1" parent="Yl6aDrCVdsE_vcPUF4tV-1" source="Yl6aDrCVdsE_vcPUF4tV-4" target="Yl6aDrCVdsE_vcPUF4tV-2">
          <mxGeometry relative="1" as="geometry" />
        </mxCell>
        <mxCell id="Yl6aDrCVdsE_vcPUF4tV-4" value="Catalog.Infrastructure" style="rounded=0;whiteSpace=wrap;html=1;labelBackgroundColor=none;fillColor=#B2C9AB;strokeColor=#788AA3;fontColor=#46495D;" parent="Yl6aDrCVdsE_vcPUF4tV-1" vertex="1">
          <mxGeometry x="440" y="160" width="120" height="60" as="geometry" />
        </mxCell>
        <mxCell id="Yl6aDrCVdsE_vcPUF4tV-20" value="" style="shape=hexagon;perimeter=hexagonPerimeter2;whiteSpace=wrap;html=1;fixedSize=1;fillColor=#dae8fc;strokeColor=#6c8ebf;" parent="Yl6aDrCVdsE_vcPUF4tV-1" vertex="1">
          <mxGeometry x="337" y="50" width="80" height="60" as="geometry" />
        </mxCell>
        <mxCell id="Yl6aDrCVdsE_vcPUF4tV-21" value="" style="shape=image;verticalLabelPosition=bottom;labelBackgroundColor=default;verticalAlign=top;aspect=fixed;imageAspect=0;image=data:image/png,iVBORw0KGgoAAAANSUhEUgAABLAAAANzCAYAAAC5+uFbAAAABGdBTUEAALGPC/xhBQAAACBjSFJNAAB6JgAAgIQAAPoAAACA6AAAdTAAAOpgAAA6mAAAF3CculE8AAAABmJLR0QA/wD/AP+gvaeTAAB9O0lEQVR42uzdeZxdZX0/8O9z7mSfO1kAQUQyM4mgUlfUuotL6173Da1V25oqZALUtbVtrNZdIDNBjdZ9LbVSWxesVnFfwdaKazIzQUAQSMjcyT73PL8/gj9ZAiaQe++5d97v14vX7wcVMvM59zzneT73OedEAAAAAAAAAAAAAAAAAAAAAAAAAAAAAAAAAAAAAAAAAADAbZZEAACtkXOeExFzf/v3b1j33f6PfeoXj9wxvfuukdICCfWWmZlmvraxe0YScDDjZNoeKV+8YEHtv666+JRpiQBwcxRYANCyhVleEBGLpqcjPeKpH/mrq7fufFku04BketNMs4xtU7sFAbfO1pTTa6cmTx2NSFkcANyYAgsAWuS3BdYJD/7Auh07Z06WSG9TYMEhWZ68uzGxepUcALixQgQA0Dr3f/THXqC8AjhQ+cX14dEXyQGAG1NgAUCLfPTzG+dctWXnKyQBcBByvC7i3JogALg+BRYAtMib3vTN+5dlPkISAAfl6Prwrx8gBgCuT4EFAC2yY+fMSikA3BrpOBkAcH0KLABokbIZ/VIAOHipTHUpAHB9CiwAAAAAKk2BBQAAAEClKbAAAAAAqDQFFgAAAACVpsACAAAAoNIUWAAAAABUmgILAAAAgEpTYAEAAABQaQosAAAAACpNgQUAAABApSmwAAAAAKg0BRYAAAAAlabAAgAAAKDSFFgAAAAAVJoCCwAAAIBKU2ABAAAAUGkKLAAAAAAqTYEFAAAAQKUpsAAAAACoNAUWAAAAAJWmwAIAAACg0hRYAAAAAFSaAgsAAACASlNgAQAAAFBpCiwAAAAAKk2BBQAAAEClKbAAAAAAqDQFFgAAAACVpsACAAAAoNIUWAAAAABUmgILAAAAgEpTYAEAAABQaQosAAAAACpNgQUAAABApSmwAAAAAKg0BRYAAAAAlabAAgAAAKDSFFgAAAAAVJoCCwAAAIBKU2ABAAAAUGkKLAAAAAAqTYEFAAAAQKUpsAAAAACoNAUWAAAAAJWmwAIAAACg0hRYAAAAAFSaAgsAAACASlNgAQAAAFBpCiwAAAAAKk2BBQAAAEClKbAAAAAAqDQFFgAAAACVpsACAAAAoNIUWAAAAABUmgILAAAAgEpTYAEAAABQaQosAAAAACpNgQUAAABApSmwAAAAAKg0BRYAAAAAlabAAgAAAKDSFFgAAAAAVJoCCwAAAIBKU2ABAAAAUGkKLAAAAAAqTYEFAAAAQKUpsAAAAACoNAUWAAAAAJWmwAIAAACg0hRYAAAAAFSaAgsAAACASlNgAQAAAFBpCiwAAAAAKk2BBQAAAEClKbAAAAAAqDQFFgAAAACVpsACAAAAoNIUWAAAAABUmgILAAAAgEpTYAEAAABQaQosAAAAACpNgQUAAABApSmwAAAAAKg0BRYAAAAAlabAAgAAAKDSFFgAAAAAVJoCCwAAAIBKU2ABAAAAUGkKLAAAAAAqTYEFAAAAQKUpsAAAAACoNAUWAAAAAJWmwAIAAACg0hRYAAAAAFSaAgsAAACASlNgAQAAAFBpCiwAAAAAKk2BBQAAAEClKbAAAAAAqDQFFgAAAACVpsACAAAAoNIUWAAAAABUmgILAAAAgEpTYAEAAABQaQosAAAAACpNgQUAAABApSmwAAAAAKg0BRYAAAAAlabAAgAAAKDSFFgAAAAAVJoCCwAAAIBKU2ABAAAAUGkKLAAAAAAqTYEFAAAAQKUpsAAAAACoNAUWAAAAAJWmwAIAAACg0hRYAAAAAFSaAgsAAACASlNgAQAAAFBpCiwAAAAAKk2BBQAAAEClKbAAAAAAqDQFFgAAAACVpsACAAAAoNIUWAAAAABUmgILAAAAgEpTYAEAAABQaQosAAAAACpNgQUAAABApSmwAAAAAKg0BRYAAAAAlabAAgAAAKDSFFgAAAAAVJoCCwAAAIBKU2ABAAAAUGkKLAAAAAAqTYEFAAAAQKUpsAAAAACoNAUWAAAAAJWmwAIAAACg0hRYAAAAAFSaAgsAAACASlNgAQAAAFBpCiwAAAAAKk2BBQAAAEClKbAAAAAAqDQFFgAAAACVpsACAAAAoNIUWAAAAABUmgILAAAAgEpTYAEAAABQaQosAAAAACpNgQUAAABApSmwAAAAAKg0BRYAAAAAlabAAgAAAKDSFFgAAAAAVJoCCwAAAIBKU2ABAAAAUGkKLAAAAAAqTYEFAAAAQKUpsAAAAACoNAUWAAAAAJWmwAIAAACg0hRYAAAAAFSaAgsAAACASlNgAQAAAFBpCiwAAAAAKk2BBQAAAEClKbAAAAAAqDQFFgAAAACVpsACAAAAoNIUWAAAAABUmgILAAAAgEpTYAEAAABQaQosAAAAACpNgQUAAABApSmwAAAAAKg0BRYAAAAAlabAAgAAAKDSFFgAAAAAVJoCCwAAAIBKU2ABAAAAUGkKLAAAAAAqTYEFAAAAQKUpsAAAAACoNAUWAAAAAJWmwAIAAACg0hRYAAAAAFSaAgsAAACASlNgAQAAAFBpCiwAAAAAKk2BBQAAAEClKbAAAAAAqDQFFgAAAACVpsACAAAAoNIUWAAAAABUmgILAAAAgEpTYAEAAABQaQosAAAAACpNgQUAAABApSmwAAAAAKg0BRYAAAAAlabAAgAAAKDSFFgAAAAAVJoCCwAAAIBKU2ABAAAAUGkKLAAAAAAqTYEFAAAAQKUpsAAAAACoNAUWAAAAAJWmwAIAAACg0vpEANB9cs59EVG7pf/Nt799abH677+0clujvP3M3ji6We5dKLk2H6ey+YCc0iz8vXPsnSln3e9dltmHHg7dGfXA+tC6nXJopZQj59+kSFfmvcUvG5edeo1MgEqPWiIA6MKCIOeFEbHfQurkv/z83X/0s9/82c7dex9TNuN20qLd9uxtRmN6jyAAukcZEd+NiH+bv7C24aqLT5kWCVA1Ciw4SAPLxx6bi1gviZYNSh+fmlj9Gkncsv0VWK963ddu/x9f2PTanTubTza+00kKLICudmXO8Q/Tk6vfHZFsLQUqwy2EcJDKIvpT5GFJtEZOcbgUDt6zVn32bhf+8NcfbjbjDtIAAG6DI1OKdw0MjT28f/eGF11++aodIgGqwEPcAbrck/70U3/4/R9c/nnlFQBwqOSIZzXm7/5MnLhhjjSAKlBgAXSxv/77r93xxz/b8oEcaZ40AIBDKsfD69fs2iAIoAoUWABd7DNf2vS2snTbJQDQIim9cGBw7NGCADpNgQXQpZ7wnE89cM/u5iMkAQC0Uk75LRFrrR2BjjIIAXSpjZuvfYkUAIA2uHv/isNOEgPQSQosgC709rdfuHD3nubDJAEAtEWZnyQEoJMUWABd6MOfufj+kdMCSQAA7ZBSPEoKQCcpsAC60I4dM8dIAQBomxzHCgHoJAUWQBfaO1MeKQUAoI36Dz/+zXUxAJ2iwALoRjnPEwIA0E67mgvmSwHoFAUWAAAAAJWmwAIAAACg0hRYAAAAAFSaAgsAAACASlNgAQAAAFBpCiwAAAAAKk2BBQAAAEClKbAAAAAAqDQFFgAAAACVpsACAAAAoNIUWAAAAABUmgILAAAAgEpTYAEAAABQaQosAAAAACpNgQUAAABApSmwAAAAAKg0BRYAAAAAlabAAgAAAKDSFFgAAAAAVJoCCwAAAIBKU2ABAAAAUGkKLAAAAAAqTYEFAAAAQKUpsAAAAACoNAUWAAAAAJWmwAIAAACg0hRYAAAAAFSaAgsAAACASlNgAQAAAFBpCiwAAAAAKk2BBQAAAEClKbAAulFKu4UAALTT/NrOXVIAOkWBBdCF5vTVrpACANBGU1f//JUNMQCdosAC6ELzFhWXSgEAaJsU5h5ARymwALrQyU+7y3ci5Z2SAADaIUf+ohSATlJgAXShV59yv53z5vZdIAkAoC2a8WkhAJ2kwALoUncaHHinFACANvjf6c1bvyoGoJMUWABd6j8/9rRvz51b+5IkAIDWLhqLl0esLSUBdHYsAqBrPekxQy8vinSVJACAlsjxvm0Tp3r+FdBxCiyALvaWfzjp0rvd5fAXpMi7pQEAHFI5vtw4bN5fCQKoAgUWQJf79w896Xv3vc/Rj63V4jJpAACHQor4l/qeeU+MC1ftlQZQBQosgB7wLxse/3/PevJdHzN/ft+/RYRnVAAAt9YVEfHiqYmRZ19++aod4gCqQoEF0CP+6W8eeMVPv/mCv7rffW7/qEWL+j5Y1NKVUgEADkAZOb4VKf/1/IW1OzUmRt4jEqBq+kQA0Fv+ZcPj/y8iXnblldOveM1bvj582aU7jprePnP7vc29C6RDO0xPN2ca07t3SQKg4nJcmSJfkff2bWxcduo1ERENqQAVpcAC6FFHHtlfvuftj90YERulQZvtSSlNiQEAgEPFLYQAAAAAVJoCCwAAAIBKU2ABAAAAUGkKLAAAAAAqTYEFAAAAQKUpsAAAAACoNAUWAAAAAJWmwAIAAACg0hRYAAAAAFSaAgsAAACASlNgAQAAAFBpfSIA6Ep7I2K7GKiopggAADiUFFgAXSiltDf2lVgAAAA9zy2EAAAAAFSaAgsAAACASlNgAQAAAFBpCiwAAAAAKk2BBQAAAEClKbAAAAAAqDQFFgAAAACVpsACAAAAoNIUWAAAAABUmgILAAAAgEpTYAEAAABQaQosAAAAACpNgQUAAABApSmwAAAAAKg0BRYAAAAAlabAAgAAAKDSFFgAAAAAVJoCCwAAAIBKU2ABAAAAUGkKLAAAAAAqTYEFAAAAQKUpsAAAAACoNAUWAAAAAJWmwAIAAACg0hRYAAAAAFSaAgsAAACASlNgAQAAAFBpCiwAAAAAKk2BBQAAAEClKbAAAAAAqDQFFgAAAACVpsACAAAAoNIUWAAAAABUmgILAAAAgEpTYAEAAABQaQosAAAAACpNgQUAAABApSmwAAAAAKg0BRYAAAAAlabAAgAAAKDSFFgAAAAAVJoCCwAAAIBKU2ABAAAAUGkKLAAAAAAqTYEFAAAAQKUpsAAAAACoNAUWAAAAAJWmwAIAAACg0hRYAAAAAFSaAgsAAACASlNgAQAAAFBpCiwAAAAAKk2BBQAAAEClKbAAAAAAqDQFFgAAAACVpsACAAAAoNIUWAAAAABUmgILAAAAgEpTYAEAAABQaQosAAAAACpNgQUAAABApSmwAAAAAKg0BRYAAAAAlabAAgAAAKDSFFgAAAAAVJoCCwAAAIBKU2ABAAAAUGkKLAAAAAAqTYEFAAAAQKUpsAAAAACoNAUWAAAAAJWmwAIAAACg0hRYAAAAAFSaAgsAAACASlNgAQAAAFBpCiwAAAAAKq1PBN2tfof1h5Xz8tG1KO+YcxydUhwTOY4ocyxJUSyJlJdGpCUReUlEzL/uX5sbEYtu9J+aiohmROyJSNsjchkRV0fkqyOlqyOnqyPKKyOnq1PkK6KITVNL50/Ghav2OgpAdeW0cPnZR82p9d2hzHF0inxsRDoqRxyRIi8pI5akiCXxu7/mXPcvLoyIedf/D0XEtdf9/3dGpF0Ree++cTKujoirUqQrI+8bM8uyvKzZ17dx56arLotYWzoOAK234Jgz79A3p284RxwZkY8sUhwROY7IOR0VKY6IFIdFTvMjcrpuzN/feF9GxLbf/W3amlO+NpVxbaS8NSJtjYitKcflZUqXpaK8bGZ3c/POS4+5IuKZTUcBoHWSCLrAMWcuWFybe5dcK4+PiDtHjuMj0vFl5OPSvotupzQj4pIUsSmn2BQ5byxT+p/anpmLpi49Y0uvHo7+obFnpMjn+mC2bFTa0Bgf+StBcDCWDJ61pFnrOyHKuHOk8rjIad94GTEcvyulOmF3RBqPKPeNk1H8IqXyfxZO7/nfK698+XZHDuAgrRydN9CMe+Qcd40Ud0oRd4pId8qR7xQ3/YK23fPiS3PEzyPln0ZZ/Cwifha1vp9Mb3rJbxw4gEOxVKRajjlzwUBf3z3KlE9MOU6MlE6MiLtG9+2W2xwpXZRzvqhI+aLY0/xOr5RaCqyWj0oKLG7RksGzluwtavcpynTvlPKJOceJkWJFl/0azUjx88j5opSKi8rcvHB6b/n9uPSMnY4wwG/lVB9ad1yKdL8y0v1SxP0i4p6x726CbvLriPhBzvGDIqfvl3PyD6Y3jlzl+AIc7FKRjjryyLcuml407wG1HA/LESfFvgvz3B78Vcuc4n9Sjq+kFF+ZO2fn167++Ssb3fiLKLBaPiopsLiB+nFvOzzPzH1o5HhY2jdO/kH05jMcd0XEd3KOr6Qif7mxYOv34uK1e3wCgNlk6fC6Y2dyenREfnREekRELO3JXzTHpkj5gpTSV2b2pq/s+NXqyx19gN+3VKTtFg2dffcipcdHTo+LiD+Mzt7e0ikzEfGDnNP5OTXP2z5x2o+65QdXYLV8VFJgzXYnre3r37zkgSmKJ0TEY2JfYTUbr1fbc8Q3ixyf3Vurnbdz0ym/8uEAes7K0XmLm/GwMuLRkeIxkeOuszSJn6UcX4kif2aqHPhyTL5wlw8H0Bk59a8cOzz2xBFRxBG5iDkpx5KIlIrIC3Lk+TmndN1zZCNHXJtSzpHTnpzS9oiIIpeNZpFmajmmIuWtZZGunV4879rb+gxtBVY7nLhhzsA1ux4ZKZ6YIz0+IpYL5cbnSGyKlM6LojyvsWnrd6r80GMFVospsGalZStHB2bKeHxZxhNTikdHxDKp3GiUjLgwUv5UlMV5jcnVPxMJ0L3WFv3Llz4sFfHciPS0+N0D1dlne+T4QkT+j5i797ONX7zsapEAh8rS4Q2Ly9hzpxxxXER5XM6xInI6OlLcLiIOj4gjIqLWoj9+Ova9GGnr//9/5+z58wMd5xRYrbwwDy15cJHSc3JOz4iIw2RywH6dI30y55n3bZ88/X+q9sMpsFpMgTV7DL5/fj1PPTaKdHJEPCF+96ZUfv+J8tMc8fFmUXzAziygWywaPOueRao9LyKeFRHHSOSANFPEV3LOH5k3b9enuvURHEAnrC36Vx5+l1SWfxgR94scJ0TEcRFxuyr9lH0pL986vuaSA1sqckjVB8fuHCm/KEU8O0fcUSK3TY74YRH5/bG3+dGqPARegdXqdbkCq9f1D5390JTTCyKlp0bEYoncJmWO+FLk9L7p6P+0W06Ayhl8//x60Tg55bQ6R76nQG7TvHhH5Ph0UcRHp47d8oW4YO2MVIDfWjq8YfFM3vOwiPyHkeP+keI+ETFQ9Z9bgdVuK0fnDZTpaTnnF0fEQ+XaErtTxKfLMr9revOar3R28a3AaikFVk8aOObMZdHX9/yc0osj8l0k0hJbc8RHoxnvnL5k5Ced/EHqQ6Nvi4i/dkhaNU6mFzXGV7+/m3+F/sHRh6UUFziYLfuMnNcYX/3UTv4IC+84dnRfX7w0R35x7LsdhUPr8pTye/buab5n56VnXCaO3lMfHH1lpHiTJFokx6sakyNv7vJfIi0aGrt7kdJjI5ePjUgPjIi+bvstDqbA6vPJvfWWDJ412Ey1U6MZf5YjHy6RlpqXI56ZivTM/qHRHxYp3j61dN65t/UhcEBrDQyffd+c00iO9PSImL/vUU60yNIUcWrU4pT64Njncy3ePr1p9ZfFArTTwuWj9+qrpVfknJ+WZ+eLitrl6JzTP/TN6fvb+tC6T5cp3rl9fOTLEcmFFnrZSWv76pcc/pjIzSdHjD02Io6OnGO27KFRYN0Ki5evv3czlS9rpniGDNsvRdwr5/jIwJbdb8xDo2N9ad67t46v2iYZqIqcBobHHpdzvDzneJg8OjBMpvy4VMbjFP5Au/QfO3rXVIvXRsTTcs7uRmjrei49rcjxtPrg2MUprXvz1LL5nzDmQ29ZvHz9vZu15vPT5vSciPJ2s/WmL+XLQRgYHHt0pPzyMspHuipXYIm87xljb5nJu/+uPrjunDTTfGtVnpMFs9KJG+bUt+55XpRjf533PSSSDvtt4V/fsvtNeXjsjdMLrvnnuHjtHskAh2xRtXJ0RdmMf4iIk6N1b63iwAb9E3KkD9W37H5dGlr39v7d8997+eWrdggGutPC5WfdvpZqz4+IPy1TeULy3YAC60AsGl73yCKn1+XID5BGJdUjpVflOX0v6R8cO2tuXz5ry8aRKbFAm5y0tq8+uex5sWX330fEkKcAVtIxKedz6juWvTyGR1/XOHbLhzz8F7hN8+PBc44qUvnasplfGG4VrJrlOdJoY97uv6sPrztr4fY9o1de+fLtYoEuGV+Hx+5WRD4jcjwnIuZJ5HcKEdy8+op1DxwYGv1SkdOXIkJ5VX2LU8pr9zZjYmBwbE3Eub4FhJZaW/QPjT2jvnnZjyPF+yNiSCaVNxg53lvfvOzHA4NjjxYHcNBO3DBnYHBsTZGaP4t9D2hXXlXXEZHTG3YsnDdZHxx9ZQy+f75IoLrqw+seXB9a959Fzv8bOV4QyqubUGDtR//K9SfUh0Y/H2X6Zo54pES6zrKc8tn1oSu+NTB89n3FAYfewODYo+tDy/73ujdyHi+RrnN8Tvn8gaHRcxesOOeO4gAOaI48OHZSfcvuH+WUz46IxRLpGodHijfVU+MnA0Pr/jRirTUgVEZO/cOjT60Pjf5v5PT1iPSECPcz3ByD1/XU77D+sIGhdeekZvk/EfEYiXS9++VcfKd/eN3ZRx+9YaE44BCMk0NnH18fGv1MTvn8iPgDiXT5lCniGX1l8yf9Q+tOifBgBWD/jj56w8L+obHRlPKXI+LOEulaQznSh+pDyy6qD40+RBzQ4Xn18LoH14fGvply/FtE3F0iv58CK+L/b4WOueUvc6SXhmeD9dRnPOW0pjF394/6B0e9DQ1upcXHvmNp//DoWRHF/0XE4yXSU/pTpPX1obGvLF45ukIcwA0WWMvXP6Axb/f/pMirw66AXnGPiPhq/+DoxxasHD1GHNDmidfys+5SHxr99307rjyq6KAW97P+orxi3QPrW3ZfdN1W6KU+Ej0qxYqU4iv9w6NnxcpR9xLDQRgYHn1uWZv5WcpxWnjWSS97WLMZP6oPrXuxKICInOpDoy+PovxaRNxJHr03O04pntPXjJ/Vh9e92vwYWm/p8IbFA4Oj70hF7UcR8SSJHLxiNn94+odG10WZvhZug5k9F+ocp/WX8a368PrjxAG3bPHysaH+odHzc46PRMTtJDILBsmIhRFpQ3147FMDx5y5TCIwOy1bOTpQHxo7NyLeEu5M6HWLIqc31Jvx4/7BsZPEAa0xMLzucc28+/9yipcYV2+9WVlg9Q+PPW0m7/5JihiJCG+qm20LtBz3jlxeuO8hlsBNnLS2rz449opmkX+cIrypbjbK+Sl5Tt+FA4Oj9xcGzLJ58sr1J+xtph9GxNOlMausTCn/d//Q2OgRJ5zTLw44NOrHve3w/sF1H805fTZHeHHObTSrCqylwxsW14fWfTjl/MmIONrhn93zs30PsRzbECducEsUXGfxsWcN1zcvuyBSfvO+3TjMYoM5xdcHBkdHRAGzw6LhdY9MzfIbEXlYGrNzbZgir961o/nz+uA6tzfBbV1wDp390Ng790cppZOlcYgGqdlzQR591EzsuTgiPc9h53fyi+tbdn+xf8U73R7FbD8XUv/w2Eubtdr/RcSD5MF1+nKKdfXh0XfFCWvnigN6V3149EVFTp+PiCXSmPWOjpT+vT48+i5v8oZbN6+uD43+TYriyxFxe3kcOr1fYB1z5oL+4XVnFzn+K3K+g0POfjwsyr3fXzR41j1FwWy0cPlZt68PjX0u5XyOXVfsfx4Wq+o7ln1Z2Q+9qX9o3d9GjveGF3Vwo7G/MW/3hQuXj95LGHBg6ndYf1h9eOyzEfFP4XFFh1xPF1j9y8+6S72v7/sppzXhtb/cghRxbJFqXxtYPvZYaTCbDCwfe2xt35tQHiMNfo8HpXLm2/Whs48XBfTQYmtw3RtTpNdLgptx51oR36kPjb48Ym0hDriF8XTo7ONjbv5e5LCmbJGeHYQGhsdOTkXte5HiBIeZAx1zcpH/wyvkmR3OrQ0Mjb0+F/kzEXG4PDgweTii+FZ9aPQhsoCuP59T/9DoWKT0Klnwe8yNiLcMDC37gp24cDMLyaHRh0QU3/IMwdbqvQJr5ei8gcHRd+ScPxoR3qDBweqLSBvqg2NviMh27dGTFg2ec1R9+Iov5sh/G7P0bbTcJssi4ov9Q+ueKQroVjkNDI6dkyJOlQUH/KmJeFTKMxfVl69/gDTgdwaGR58TEV+8bo5EC/XUwmXJ0Prl9WZ8M6d4iUPLbZLyq+tD699lqzS9pj40+pAiNS+KHA+XBrfBvBTp43asQrdeC8bebL7MrZLzHaIoLxgYGlV+QkQMDI+dnnN8NCLmSaP1emZxXl+x7oHNKL8bESc6rByiK/SLB4YP+2icuMEDTemVBcufR8SXwttQOGRziPSu+uDYK0QB3aN/aOzvIuLlkuA2mJsjxvoHRz925JFvXSQOZu/cevSvc85nhudtt3Py2QMfnOGxF0aZvhwRRzqkHEo552fXt+w+L445c4E06F7n1vqHR8+KyP8c+55jAYdKipTfXB8a/SdRQPX1D607JUX+R0lwSC4AKZ6zc+H8byxYOXqMNJht6sNjr4qIt0mivbq8wDq3Vh8efVPk/L6wZY/WeXz/nNqnlVh0o8OPf3O9PnTFeSnHadKghf6mPjT6djFAdQ0Mr3tcinS2JDiUcuR79jXjewPDZ99XGswW9cGxV0TOb5RE+3VtgXX00RsW1oeuOC9yvNJhpNVSpD/qn9P37zH4/vnSoFssHV537O49C78bEU+UBm1wRn143ZvFANWzeMW6E3NO50ZEnzRogduXubigf3j0qaKg19WH150RKZvvdEhXFlgDx5y5rDFv95csyminFPHH9dQ4r4hSiUXl9a9Y9wcz+17lexdp0DY5vaI+uM43klAhS4fXHVuW6T8jwrOKaOU8eWHK8a/1wVGbC+hZA0Njz4uc3DbYQV1XYC1Ycc4d89y+r0eE17fSCY/Jkd4qBqqsPrzuwalMX4uc7yAN2r+KSa+KiOcJAirgmDMX7I10Xnh5B+1aW6Z4U//Q2GhE9lBresrA4LrH5MjvCw9s7/Ag00X6l591l1rZ/EbkuKtDRwd5WQCVVR8afWLk9F8RsVQaGCdhll8T+mrnpBz3lgTtlCKv7h8c/Yg3edMrBobPvm9O6V8jwme6w7qmwKqvGHtQKmrfSBHHOmwA+xknh9b9RUScFxFeOAAwy/UPj700UnqhJOiElNLJ9S27/83zY+l2SwbPGsy5+GxE9Euj87qiwOpfMfaIXOb/iohlDhnATQ0Mj50ekd4dETVpAMxyZb57yvksQdBhT6ynxueXrRwdEAXd6Mgj37qomWr/HhFHSKMaKl9g9Q+OnRRl/s8UsdDhAripgcHRkZzz28M9+QBERKRYERFzBUEFnLS3GV+uH/e2w0VBd8lpx8J5H4iIe8iiOipdYNVXjD0oJeUVwM2Ok0Ojf5lTnB3KKwCgmk6MvXO/NHDMme6moWv0D61/TUQ8XRLVUtkCqz687sFR5vPDvaYA+7+wDo++JCI2hPIKAKi2e+Q5fW4npCvUh0afmCKvlUT1VLLAqi9f/4DI6XOhvAK4mQvr2J+nHOtDeQUAdIf77W3G+Ycf/+a6KKiqBStHj4mI90cXvfBuNqncQVm4fPReUZTnR4SBDWA/BobGnheR3+PCCgB0mQfs3rvg03HMmd6YTPWctLavrxmfiIjDhFFNlVr8LBk8a7BWxGcjwtZSgP1YNDz6qBz5vWHnFQDQjXI8vH9O33mxcnSeMKiS+uZlr42IB0miuipTYNXvsP6wZqp9PiJu77AA3NSi4bG7FTn+NbxZCgDoYini0QPN+GBE9oUcldA/OHZSRLxSEtVWjQLrmDMXxNzy0xFxZ4cE4KaWDK1fXuT8hYhYIg0AoNvliGcNDK1/nSTotP6Vo0eklD8eETVpVFsFCqy1RX1O7cNhqx7Afg0cc+ayZmQ7VAGAnpIj/23/4NhfSYJOSs14R0QcJYnq63iB1T+89MyI9DSHAmA/Tlg7N8/p+/eIfBdhAAC9JqU8unho9I8lQSf0D449KyKeLonu0NECa2B49LkppzUOA8DNjJPbl50dEQ+RBADQo+aUEZ9cNDR6D1HQTtfdOjgqie7RsQJr0dDoPcoc73YIAPZvYGjseTnFSyQBAPS4eor4j/pxbztcFLRLauZ3RsTtJNE9OlJgDRxz5rIi4rwUsdAhALipxcvX3ztHVvIDALNCijg29s79cMTaQhq04QP3dI8y6j4dGBzWFnlu30ciYkj8ADc1cMyZy8qi/GRELJAGADCLPGZgeOnfi4E2uI8Iuk/bC6z60LLXRY7Hih5gf86tlXNqnwglPwAwC+Wc/m5gcN1jJAHcWFsLrEXDo4+KiFeLHWD/+oeueHWK9EeSAABm6xo1p/SxxcvHfJkH3HBwaNcftO+5V+kDEZHEDnBTi4fH7pMibJsHAGa7pWWRz40TN8wRBfBb7duBNafvHZHzHUQOcFNHH71hYZnzRyLCRA0AIOI+A1t2/Z0YgN9qS4FVHxx9QY54lrgB9m96/q63R8TxkgAA2CdHevXA4Nl/KAkgog0F1uLlY0ORYp2oAfZvYHDdY3JOqyQBAHADfTmKjx5xwjn9ogBaXGCtLcoifygiBkQNcFP14952eE6eDwgAsF8pVuzc0XyjIICWFlj9g4e9OCIeLGaAmzEz960RcaQgAAD2L0WcMrB87LGSgNmtZQVW/4p33i6l/AYRA9zMODl09kMjx59JAgDgFqVc5HceffSGhaKA2atlBVYq97w9IpaKGGA/Tlg7N6XineHWQQCAA7G8MXfPa8QAs1dLCqz+wdGHRaTnihdg/+o7lr0sctxVEgAAByjlv+5fftZdBAGz06EvsE5YOzelZFcBwM1YMrR+eUT8jSQAAA7K3FQU74rI1powCx3yAqt/x9KXR2StOMDNaEY5FhGLJAEAcLDSQweGx06WA8w+h7TA6l85ekSK9AqxAtzMODk4+rCIeKIkAABunZzjbUuHNyyWBMwuh3YHVjP9XUQMiBVgv9OtlFK8UQ4AALfJUTPlrleJAWaXQ1ZgLV4+NpQiv1ikAPvXP7T+6RHxAEkAANxGKa1ZsHL0GEHA7HHICqxc5DdGxDyRAuzHiRvmpMj/JAgAgENiQV8ZrxEDzB6HpMBaNHjWPXPEM8QJsH/9W3a9OCLuJAkAgEMkx1/UB8fuLAiYHQ5JgZVS7c3RgjcaAvSCo4/esDBF8g0hAMChVUsprxUDzA63uXRaPDx2nxTxx6IE2L/pebtfFBFHSQIA4NDKEc9cvGLdiZKA3nebC6wyl97+AHBzTlrblyP+WhAAAC2RymynO8wGt6nAqg+dfXxEeooYAfZvYPPS50TEoCQAAFokx5P6jx29qyCgt93GHVjp5eHZVwA3N5tKEcUZcgAAaKmUanG6GKC33eryadHgOUdFpOeKEGD/6sPnPD5HvqckAABa7k8X3nHsaDFA77rVBVaRmmdExHwRAtyMXL5CCAAAbTGvNiePiAF6160rsI45c0FE/Ln4uJFmRGyNiKsi0vi+v+LX1/0zmFUWDZ1994h4iCS4kd3XjYm/vt44eVVENEQDcLOmI+Ka642bl0bE1hyxQzTcQI6/WrZydEAQ0Jv6bs2/NDCn9vQcsUx8s86eiPhpRPwoR/yiiDSZUzlZFOnXRTnv6q3jq7bd4r89+P75i8udC8q+8ogil4PNlFamnFdExIpIcafIcdyt/UxC1dQircpimK2LrP+LFD+KnDfmKDYXkTfXUr5i7vY911x55cu339K/fMQJ5/TvujbPywviqNTMKyKVK1OOFWWkFSnSnSLysIiBHiscNuUUG4vIm3Kk8chpU1nEpqJv96/npebuq3/+ylsu+I85c8GCiGXFnL7Di0jLU86DZZGHi5z+IEfcPSKOEPKssnhmJl4QEaOigN5zq8qCHGmV6GaFayLyBSmnb6QifWPb0rn/Gxeu2nur/2uTL9y1LWJX7Nt98IuI+K8bL9z27Gg+MEc8JEc8LCLuG25TpQsdeeRbF+3wjMDZYjJSXBARX49cfrMxseYXEelWd5dXXXzKdPz/nQZx8Y3/74uGzj4ypdqDI+eHFpEemiPfLSJqDgPQJWYi4qLI+ZuR4+u5b+43pze95Dc39z8+oK2pl56xc2fEZbHvr/+98f954R3Hji768gMj5QdHpIekHPeKiORQ9K6c4i9DgQU96aALrP6V60+IZvkg0fWqNB4p/2tE/kxj/Pbfjnhms11/8nULt/+K3xZbK0fnLW4WDy1z8zmR0lMjYrHjQzfYsXD+syOyz2vv+l7k+FSu5c9Ob1rz4xv+n05r6R+8feK0KyPi3677K5YOb1jcjN2PyzmeExGPjoi5Dg9QMTtTxH/mnD6+cOeuL/6+naiH/Jr8q9WXR8Qnr/srFg2ec1SRysdH5CdGxGMiYp5D1HP+oL58/QMam0/9tiigtxz8Dqxmtvuq90ylyB/JRXy0sWn1t2/L7oFDauPI7m0RX4yIL8bg+1/aXzQel3I+OSI9PuzMotLyi2XQcy5NKd6Xo/hoY/zUX1Tlh7ru1u2PR8THB445c1meU3t6RDo59j1/rXDYgA7ZGxH/lSJ9Yu7cHZ/+7W2AVXjY3/bJU66IiPdGxHsXH/uOpWVt7zMi0gsi4gEOWw9J5V9EhAILesxBFVhHH71hYSN2/6nYesYvU8To3Lk7P/i75wusqeZPOvnCXdMRn4qIT/WvHD2iaMZIjjglIpY6jFTJwuWj94qI+0miZ3wjRxqdXn7NeXHB2pkq/6BTl56xJSLeHRHvrg+dfXzk4hWR4nlhVxbQPtOR83tman1n7dx0yq+q/sNuu+SlW387bi5evv7eZWqeGimdHHZldb8Uz1q2cvT0LRtHpoTBLNCIiCtj34uBro6cr44iropIOeeYTjn2PQYo5a0RaXHkKHKk+anIC3Lk+VHGEalIt48ybhcpjoh9zw6s5K3WB1VgTc/f/ZTIscTno+sH9J+kSP80NX7kv7TzFsFDNjPaOHJVRPzd4ce/+S2798xfFZFOj4ijHViqoCjiRVLohWEy/ruM8h+nJ077WkRETHTZLGbitJ9HxJ8vWDn6D30z+YxI6cURsciRBVrkqhxprNi795zryvSus23zqRdFxIsWrBz9+1ozvSJF/suw47+bLdozk06OiHeJgh5RRoqf5Rw/jEg/L1LeGFFuTDNzN15Xxh86x5y5YNGc4k4pFStTGXeKlO+UU7pXynG3iJjTyRAOqsDKOZ7pc9PNK7J0Wcr5b6bGt3wkYm3Z7b/OdbvG3hYrR8cGZmJVTvHaCAUrnXRuLcUVT5ND98opLooyzmhMjny1F36fnRtHLo2IM+p3WP9PeV75mpTj1PC2V+DQ2R4pvb6+a+7o5Zev2tFD4+bIwjuOvalWK18fKf1ZuCW7S5c++UWhwKJb56QRO1LEVyLlb+ZUfHduyj9o247CS8/YuT3iR7Hvr99ZOTpvYKa8Z6TivjnifpHSIyLnO7QzlwOexC4d3rB4Ju9+tI9SV9qdIr9lwfbdb273gzPbYuPI7qmI0UVDZ/9LEcVbI+J54e0ydED/4JUPiYjbS6IrXRUpXjU9vuUDvVDw31jjslOviYjTFw2d/f4iivWx7xlZALfFJ2eK2hk7N53yq0YP/nLXPfz9RYuXr19fFuVoRHiJVfe57+KVoyu2bRzZJAq6xC9zis/Wcnx+W65/LSZfuKuC6+7vxr6/9q1/lp91l6IoHpUjPTIiHhER9Vb+CAdcYM2Uu54cKbkfvPt8O9eKv2xsPPXiXr8B/Lq3cz2/PjT6nog4JyLu5vDTTkXkZ2YxdJ0U8a9lLU657vbkXh8nfxSRHzYwNPanOeItEXGkTwBwsAusVKY1U5tXf342/LL7bi3MD6kPjf5lRHprRAz4CHSPskzPiIg3SYIKuzYinRup/HBjfOSblXmh2gGa3nz6TyPipxExFitH5y0q4yEpxxNTxLMj4naHfr114DP8p/tsdZW9EfGKxsSWB09vPPXi2fSLNyZGvt5YvuXeEfGGiCh9FGiPc2s5xVPl0FWuiUhPmpoYeeZsKK+ud0HPUxMjHyqafXeJlM7zMQAOUM4Ro41a3G22lFfXHzcbE2ve3Zfy3SLy13wUuupTaw1LVX0jp/T0xsItRzYmVq9qjK/5RreVVzexcWT39vGRL01PjKxpLJt3TMr5sTnnj0XEIdtJdkA7sJYMnrWkGemPfca6xuYo8smNTWu+NWsTuGDtTCPib/tXjP13KvNHI+IoHwtaadHwr0+KnOxm6R5fndk789ydl55x2WwN4LoHfj61PrTuxRFpNLx1C7iFISNHfvH0xJpzZ3MIW8fXXBKx9uEDg4etzim/NTr8MGMOyIkDK85ZObXplI2ioAJyRP5sFMWbGptWf7Onf9MLV+2dijg/Is7f9ziqXc+KSM+P23g79gHtwGpG7cnhNdzdckZ8oWj23WtWl1fXM71p9ZebM+nEiPiqNGilWtil2kXObEwc9cjZXF5dX2NizbuLlB4ckcalAezHt2tR3GO2l1e/s7acmly9rkzxuIjYIo8uWB81m16wQxWcn2vF3RoTa57Y8+XVjWwdX7WtMbHm3Y2JkQcXRb5Pjvho7Ltj7KAd6C2ET/R56wpvn5446vGH/DWaXW7Hr1Zf3pg46pGR8lukQYumRilHYZysvl2R8wsaEyN/HfHMpjh+Z9v46h/0pbn3jojPSgP4rRRxTmPZvIddO3HqZmnc0PbxkS8Vtbhf5LhYGpX/ID9DCHTQz1LKj29MjDx2tj3aZ79zzk1rLpyeGHneTC2Gr1ufX3sw//7vL7BOWtsXKR7hc1dpZU7plMbEyMssym7OM5uN8TWvTJFHwnOxOMT6V4ye0O5XyHLw18uc4zGNyTUfFMX+bR1fta2xfMuTI+f3SwNmvZwjv2ZqYuTUuHDVXnHczIVl48imvmLeg8JO/6o7ccHK0WPEQJvtiZRe3Vg27+5T42s+J44b2rlx5NLG+JpXzpu789itRbryQP+931tg1X912B9GxBIRV/fEyDk/d3p89TtE8ftNTawZizI/PQ7hg+QglenRUqi0K5tlPHx6csQC4/e5YO1MY3Lkz1PKrxUGzFrNiPxX0xNr/kkUv9/W8VXbGrV4dIr4V2lUV18ZnudM++S4uCiLBzTGV7/JlwC37Oqfv7IRG0d2H+j//vcWWKksLcyqa3dK8dTpyTWfEMWBa2xec16Z8hMioiENDs01Khsnq+vySMVDd2we+aEoDlTKU+Nr1qYca8KOVZhtdkbOT2tMrHm3KA7CxpHdUxNHPSfn+LgwKnpli/RHUqAty4KItzf64sRtm0+9SByHXvH7j4CdBRW1JyKeMTU+4nklt8L28TX/XaT0iIjYJg1ui6OP3rAwRXqIJCrpisjpkY3xU38hioM3NTkymiK/IJRYMFvsykV6QmNyzadFcWs8szk9uOX5KeJfZFHBViHnR0WsLSRBK8fQlOJPGxMjLzuYHUUcnFs8iet3WH9YRJwopsopc0onNyZG/lMUt9628dU/yDmeFG4n5DaYnrvroRExXxKVsyXXikc1Jlf/TBS33tTEmg+nyKdJAnpeM8p88vSm1V8WxW1wwdqZqeVbnhcR/yGMyjl88Yql9xIDLXJFyuVJU+MjHxVFa91igZXn5EdFRE1M1ZIi1kyPr/43Sdx2+56Jk54VETPS4NYoC7tUK2hXpPwkb3o5NKYm1oylFP8oCehZOSKtamxec54oDoEL1s409s48O3J8SxgVm7Nlz8GiJTb2pfyHU5OnfVcUrXfL2yhTfrCIKiblt0xNjKwXxKHTmFj9H5HjL/dN4OBgT8kwTlZtfprS8xrja74hikNnanzkH1JkLwuBXpTj1Y2J1e8VxCF06Rk7Y2/xJxHxc2FU6bOeFFgcar+cqcXDt46vuUQU7XGLBVaKuL+IKuX8xvjWV4vh0GtMjnwgcsiWg3PMmQsi4h6CqI6U4vV2qLbG1MTW1RHxSUlAD63nI401JkfeLIkWzC0vO/WayOnJETEljcr4wzhxwxwxcIj8YmbvzMN3bhy5VBTtU1iYdY2JtHfmuRFrPUy3VRONydVviRyfkgQHqj63dmJEmAhVRYrPT41vea0gWmVtOW/uzheFHQXQK4Pmd6eXzf1rObR0bvmzKPMLwi7/qliweOse61sOhctnavHInZeecZko2utmC6z6nL77WJhVxq6iyM+YuvSMLaJo6UQuz5u38wUWZxywnB4ghMrYHH17nq/kb62rf/7KRi7y03PEDmlAV9talPGcuHDVXlG01nXPFnujJCoydcvZHUbcVjtTxFPsvOqMW7iFMP+heCoz0v7Vtk1rLhREexZnRVmcHN5MyIGdnMbJathV5uaTG7942dWiaL3pTWt+nFI6VRLQvRevSMXzt21ePSGK9mhMHPX3OfIXJVGFD7+5G7dxZR7x/KmJke+JojNu6RlY2ulqjLKfakyu+aAg2mfb5lMvyjmdLgl+r1QYJ6vh77dPnv4/YmjjYmx89fsjxQckAV3pbY3xUz8jhnZ6ZrNZSy+KiG2y6PjkzdyNW//pifin6YkRzwPtoMLCrNK2lFE7RQztNz25+l0Rcb4kuDkLVo4eEznfQRId9/3GxFFniqH95i+orY4I2+ehu/yyUYu/E0P77bvdKL9CEh23on7c2w4XA7fCd6aWe9Zqp+23wKof97bDLcw6L0Wcvn3ylCsk0aH8i9rqcCshN6OvLO4phY7bk4v8oohnNkXRflddfMp0Tuk0SUBXTfxPjY0juyXRGY2JkfdEji9LorNT/DQz122EHPTpW9TieXHB2hlRdPw6dlN5z9wTRNNhOX1uamLkQ4LonKlNp2zMOb1JEuxXWRonOz1M5vin6U1rfiyJzpkeX/1vYbcqdMeqPeJft02M/JckOnoUclE2/zIitsuio/MHbyLkIE/dtGbbxpFNgui8/d9CWCQLs87aW/TlETFUYHHWl98U3krI/lcCxsnOmpzuizeLoQITiVqcGnarQrUX7BE7iiheLonO23bJ6eMp0tmS6OgZcRcZcBC+0Rg/9QNiqMi8c7//MOe7iqajk4wNGt6K2DiyO5Ue6M5+GSc7KKV4jdtgKrIY2ziyKaV4iySgymNmet21E6dulkQ11NLct0bENZLo1FrLZg0O2EwZ5SkRKYuiGvZ/C2HYWdBB0znK14uhOqY2r/58RHxTEvzO2iIi7iyHjvnR1PiWj4uhOvqKeHtEXCsJqKQt8+bsOEcM1bF1fNW2iOwxFZ1z/HVzObhFOeJd2ydO+5EkquPmTlw7Czokpfz27ROnXSmJqh2YwiSD/2/xsYsHI2KRJDp0OpbpVRFrS0lUaHW8cWQqRbJAhkrOLWP91T9/ZUMS1dLIA+tTxK8k0YFzImLhdXM5uCVba82+vxdDtdykwOpfOXpERNxONB1x7dw5u94uhgpOMsZP+WxE/K8kiIgoazW7VDvnm9ftiqRi8pzdZ4cHE0PVbM99e8bEUEGTL9wVkd8qiA7N5frm2LDBLc9rcpy97ZKXbpVEtdykwEo5HSeWjnmfb8iqKuWc0xvlwHUfhzsJoUOTiUjrpFBNjV+87Oqc4j2SgAqNmSn/c+MXL7taEtXUV0sfjIhpSXRA6ZnP3KJtfdEcFUP13KTAys3yjmLpzDBa1OIdYqiu6ckjPxk5PFyfyJGMk52Q0mXTy685TxDV1dwz87aImJEEVGNuOSfiTDFU15aNI1Mpx4cl0Yk5RV4pBG724xExdu3k6ddKonpuugMrWZh1aEn8OW8erLpnNnPEh+RAKuNYKXRglMz5XXHBWuVIhe289IzLIsUXJQGVWIF9dev4mksEUW1lLfsCuzOsedn/fDNiR+ydOUsS1XTTHVh2FnRmjpGL9VLoghOmVvuYFIhk0tMBu6OY824xdMP1LBknoRqrMG9r7QLTm9b8OCK+Lom2z+V8GcnNzGPyv0xdesYWSVR0PX7TczkvF0vbXTE1eY1vrLvA1KZTNkbE9yQx6xkn2+/86U0v+Y0Yqm/Bjl3nhWe6QKftiT3Fp8TQJQvmiHOl0GZZgcXNnI8pvUsK1bWfHVh2FrT/opU/5ZXwXXS87C6Y3VaOzouIIwTR9sm9hViXuPLKl2/POf5TEtBRn29cduo1YugOe/fOnLdvGUYb9S8ZPGuJGLiRH01NjNisUGH72YEVx4ilvZopeShxVx2v5icioimJ2WnxvjEySaK9c/vYO/MZMXSPlNy6BJ09B5MdPV1k56VnXBYRF0qizZOLlOzC4gZyShukUG03LLAG3z8/Ig4XS1tt2b503lfF0D22T5x2ZY74kSRmp+aM5wS2fTIR+QLPIugu8xfWvhIReyUBHbpWlcWXpdB117p/l0J71VJhTsf17U2707+IodpuUGAtmNl6WNhZ0G6fjQtXmeR3m5S/JoRZO2oeJoR2n2+FSX2XueriU6Yj0kWSgI745fbJU64QQ3cpy/Q5KbRXzvkOUuB38834kluvu2Epdv2/mTtnmUjaPnQqQrrz1PG2mNl6bcvZONn20EvjpOsb4NzraTs2H/Wj8AKMNs8vfCnJ9ZTZ7qtuWIXf4G9yXiKSNk8xiviOFLrxzMlfCw/bnK2Mk+01Nb1p60/E0I0Lg8IiGjoyuUzfEEI3emYzItu52t5zZakQuE4zzTS9gKYbluE3PIntLLAw40BMbxy5KiL9TBKzcbJjnGxr3JG/6y2t3akv5nw9vPAC2j+5L5vK466VviuDtlJg8VsXet5ql1zjbjRoOoktzDjwI/gDGczCqWVhB1abL1J2qXapreOrtkXEuCSgrRrbLjndedetM8ukwGpz4ta+/NaXRNA1a4PrL8wUWG1dCOdCAdLNl7ycNklhVs4u7cBqZ9xhnOzuC11sFAK085QzN+lmtSL/jxTaOqez9uW367ovSqE7uIWwo+lnE/tuPnwpTBJnJ+NkOycUTeNkd08IjZPQ1nMuSudcF9u2eN4l4dbr9p0vyS2ERETE3oE9c78nhi5Zg1//b8qU6yJp56CZJqXQ1SvrXwphNi4OknGyjXEv2r17sxi6eJKRkwIS2smXa93twlV7U8TlgmjX6aLAIiJFuvjyy1ftkESXzC1v8DdlmiuS9qnNxIQUunhlPXfGJHE2HvfIxsn2+c2VV758uxi6+Hwp3M4E7T3plMbdP88IX9y0zyIREKn0vNUuUtzwmmdh1kYz24au+ZUYulfjFy+7OiKmJDHLrnERc6TQtrQnZdDlC7HmXgUWtHViXxg3u58vuNvH2pfInkvdZde5Gy4WLMzati5LV8YFa2cE0fW2isBkh1YpL5VBlx/BiGulAG1ciEW5TQrdvkbIvxaCOR3tPOWaP5ZC97jhWwiTWwjbN8PIDSH0wogXbm8y2aFl51cyTna5+XNqxkhoo7IZ01Lo8iVCWXgWT/vYvEGuFQt+JobuccNbCHPpJG7XmZLCxaknDqSJ4qyT7FRtW9Q5Gye73JaNW6YjIksC2qOvViiNu36a4drXzlMmYm0hhlntsq3jq+xc7SJuIezYwkyB1RMUWLPwmGfjZNtOL99Cd7+1ZY7YKQdoj5laadzs9mtfSkrIdlq5zLxuVs8180+l0F1u3Di7NaZtJ4tbz3qCWwhnI+Nku06vVDq/emKYNE5Cu0zvmvHFWrePmaUdWO10eG2ned0sVqTwspluO2bX/5sckUTStgn9bin0xHG0s2BWHnbaIRsne+U4GiehXS49Zo8Qun3MzLuk0D57ts+xA2s2n285/UoK3aW40arMW/HaN6GfL4WemGQslMKsY5xskxTJONkTxzGMk9AmRx652bjZ7WNmkYyZbVSbu6gphVl8vqXYLIXuUtzoCPrWpn0T+kVS6IlRz3GcfYyTbZKzcbJHOI7QJtML5/RLocunljkbM9to657t5nWzea4ZWYHVZYobDZhO4HZdnELx0SOjnuM4+xgn2zVOJpP47re2CDuOoW36aoUCq9unltkOrLZaObVXCLNXrSwvlUJ3udEzsLITuF0XJ7ee9cgKO0wUZx/jpEk8B+jw4xcsCs+Ng7aZaZaK/26fWppbtlMZF6z1aIhZbOGehb+RQne54S2E2cKsjQZE0AsrbM92mX0zSzuw2pi1cbLL7dzdbzEN7ZzYF0n50eXKlOtSaBtr31k+Tbn88lXe+tlt17kb/p1nYLXR7WLl6DwxdL1lIphlFP3tzPqOQuhuKe9ZKgVo57hZMy/p9nEzimOl0DbWvrP6XIurpdB9bngLoYVZW7Ovl8VyMXSv+nFvOzzspDPZoZWGRNDlk8PanBVSgDaec2V2znW5nPOgFMzpaL1SgdWVbvQQ99QQSVsnGRZn3Xz89vSZJM7KAx/TQmibZUuHNywWg8U0cIALspRXSqHbpxm+vGkjBdZsPtdSXCuF7nPDWwhT3iqSNk4ywjcs3X32FCaJs/PENU62c2aZdxsnu3oxHQosaO+CzDnXxRYf+46lEbFEEu06YczpZrUcNu904xL8RkfRSdzeScadpNDFC7OchqUwG09c42R755bGye4+XSymoc0LMl+udfPh69vj+LV1Mm8Hzqw+33Jsl0L3ueEzsFJhYdZe9xNBNy+sbdOfpcOmcbKt55lxsrsPoFsIoc0G46S1fWLo1hV18YdCaOskw5xuNh/+pMDqypWYk7ij7hMnrJ0rhm6dZMSJQpiVB9442V4PEEF3WrZydCDCbhBoszkDlyy5lxi6U5njgVJoqy0imMUzes+17Uo3KLDKGQuzNluweOdhdxdD96nfYf1hkeKukpiFF7ucTHba68Q4ccMcMXSfmb3pQRFRkwS0+zpVPFQK3SmluL8U2niuRLpWCrP4fCvzLil0nxsUWHOLwsKs7ZOM0u6CbjSn+eCISIKYlRT97bVgYOvOe4qhC69vqbSIhs54iAi6z6Khs48MbyBs70I4lda+s1hKaUYKXXje3mBNvjBdI5I2T/AjHiaFrhzxTA5n6zlbZONkuzPPyThpnAQO3EMi1hZi6LIhM9dOkkKblZ5rOstPuqYQus8NLm5XXXzKdERsE0tbz5zHxDFnLpBDN04OmZVnbLN5mRTaLKenCKHL7Luu3UcQ0BHLFg0t+QMxdNmiLGXXuraHnq8WwuxV5kKB1Y2n7X7+2a/E0laL6n1zHi2G7lG/w/rDIsIDUmfrCbtr5hIptFmK+y+849jRgugei+f0PSQi5kkCOrUuLx4rhS6ycnRejnicINqrzKV176yeXtqB1ZXXt5v8k5wsztp+9uSnCqF75Dnl0yPCQ6VnqSuvfPn28Naatl+rijnxZDF006IgP1sK0NGV2clC6B4DZTwqIuqSaK++nK17Z/WiLhRY3bgouOk/yZro9nuit2x10ZwwxXOkMOsZJ9t9scqK/q4x+P75kZLjBZ1190XDY3cTQ5eso8swZrZf89rDFnosBHTbmuAmA2hWYHXAkv4tu9z33gUWrDjnjuH5V4Rxsu2JRzx88bFnDUui+vqL6cdHxGJJQIcn+WVpF1YXOPz4N9cjxdMk0Xa/jgtX7RUDdNm17ab/IFmYdUCKtFoK1ddXNp8d+392HLPpfM3GyY6sxWp9LxFDN5wfpV2qUAE5pZO9jbD69uyZ/4JQ+nfgBAm3D0I3Lghu/A/K0s6CDnnwosGz7imGak8FI+JP5UB2q3Wnkn/R0UdvWCiH6tr3kovkQcRQASni2MVDyx4liWrPLXOkl8qhA+dH8jgI6EY3KbCazeYvxNKpg1GzC6vCBoZHHxsRnidB5CiMk52xrDFv93PFUOEFwbzm6ohYIAmohjLi1VKorsVDY38UEXeWRCfmcnZgQTe6SYG189IzLouIbaLpxMw/nrNo6OwjBVHRC11Or5ICERHRnPmJEDo241zjlphqOuKEc/pzdjs8VMxJ9RXrHiiGik4nIs6QQscWXj+XAXSfm1sEWJx1xoJaFH8nhuoZGBy9f3h4O9eZPnzhxojYI4lOzDfjhIGhwzyYuIJ27WiuiohlkoCKKe3CqqL60OhDUsSjJdGp8yJZ70IXupkCKzuhOyRHvHhgxTkrJVG145IUi/zOhav2Ro5fCqJT52N+XawcnSeJCjlxw5wUsUYQUEXpCYuXr7+3HCp3MXuTEDqnlvb+VArQffZfYCU7sDpoTtls/qMYqmNgaPR+kfJjJcENhknjZCcNDszEKjFUaJzcsntVjrijJKCayqI0t6yQ+vJ1T4kUbu3s3CTusmsnT79WENB99ltgpdLCrMML42f5pqwqzq3liHMiIsmCG56odqp2Uk7xmmUrRwck0Xn9K955uxzxOklApT2+vnzdU8RQASet7Yui+CdBdHAOkfPFUoDutN8Cq1YosDp9XJpF+c9x4oY5oujwwmz4ylURcR9JcGNlNk522BEzzfxGMXReKve+NSKWSAIqfq4Wad0RJ5zTL4nOql+y9OUR+S6S6OC5oMCCrrXfAmvr+MivIuJq8XRwYI24V/2aPadLooMTjDusPyzlbMs9+x88U/xQCp2VI71k0fDooyTRwXFyeN2DI+JPJQHdMGbGHXftnPFMz06OmUNnHx85/b0kOr7Q8iUkdOsa7GbO6hw5fU88nR5c89r68PrjBNEh88q3RcRhgmB/psZHNkbENZLo7ChZ5Hjn0UdvWCiKDjhpbV/k9I5wizV0j5xO71+x7g8E0Qlri8jF+yJiviw6vAAufAkJXXv+3uz1LfJ3xdNxCyKXH4g4tyaK9qoPr39C5PgzSXDzUo6cjJOdt7Ixb7fnL3VinJw87B8j4m6SgK4yJ5Xp44r/9hsYPmyNB7dXws5tS+b/SAzQnW62wKql+I54KuEB/UO/fpUY2mfJ4FmDkcsPhV0F/B6K/so4bfHQ6B+LoY0LscF1j4mUXykJ6Ep/0Ji7e0wM7bNoaPQeZc6vl0Ql/CAuXLVXDNCdbrbASrn5vYgoRdR5KdI/Diwfe6wk2uDEDXOaqfaxiFgqDH7/AGoHVlUORRnx8cXHnjUsitZbsHL0mJzSh29pDgFUfnL5ovrg6AsE0XpLBs9aUuT4txRh11s1PvvfEgJ08/rrZlw7efq1EfELEVXjOOUif9TirPX6t+x+W0Q8QBIc2AA6891Q9FfFsrJW+1Qcc+YCUbTQSWv7+prx8Yg4XBjQ9Qv5dy4aGr2HIFopp2bR975IsUIWFVEmdxlBV6+/bvnC5gSvjqVlrXZuDL7fgx9bZGB49DkpYrUkOFCK/sq5R72vb70YWqf/kqVvi4gHSwJ6wvwi4tz6cW9TSLdqzBwa+9vI+SmSqI5mnrF7HrrYLRdYZXxVRJVyYn9MvTciezbTIbZ4aP0f5RwfCM+94mAl42TFjseLBgZHRwRx6NUHR1+ZclojCegpx8XeuZ87/Pg310VxqMfMsSeniNdKolI279h8+q/FAN3rFgusmZmZL4qoYmuzlE6uD46+QRKHzsDQ6P3KKD8VEXOlwcHKEf8lhYodkxRn9Q+PPlUSh3AhNjz6okjxRklAT7rvnj0LzouVo/NEcYjGzOXrHxApfyw8K7BqfOkIXe4WB9Wdl55xWeS4WEwVk9Kr+ofWnSKIQzDBGBy7c474bET0S4Nbo69sfjkiZiRRrWtbyvGR+vA6t7odmnHyyZHj3WGHKvSsHPHIejM+EnFuTRq3fW4ZRfkfEeGZjJVbQvnSEbp+kn8AlzQnehUH4Ehj9aGxP5fErbdk8KzBlPJ/hYcRcxtc9xys70uichZETp8dGDz7D0Vx6/WvGHtEpPzxiLCohd739PrgFe9WYt16AyvOWRkp/7e5ZSWVZZrj7iLocr+3wEpuj6mqFJHfPTA0+nxRHLxFw2N3a6baN3PEHaXBbT4Zk6K/qmuJnIrzFw+P3UcUB69/eOxpqcyfjQgvD4HZM7t8UX3o1//ipUEHb/GxZw3Hvl3ZR0ujenKK/5ne9JLfSAK62+8tsPr3zP9aROwWVTWPX474wMDw2OmiOIgV7eDo/Yucv2KCwaGbFBW+0auuJWXOX1k8tP6PRHHg6sOjL0o5fyKUVzALpafVU+P8pcMbFsviwPQfO3rXslb7qi9GK/ypLtMXpADd7/cWWJdfvmpHivi6qKo7Huecz+wfHPsHURzABGN49Kk5xVci4jBpcKg07njNdyPiWklU99Qvo/yP+uC6J4ni9xsYHn1t5HhvRPRJA2ath83k3V9duPys24viltVXrHtgqsXXI+IYaVSXl+5AbzigN2OUkf9dVNWWUl5bHxr7gDfI3MKibHBsTcpxbthRwKF2wdqZiPwZQVTa/Ejp3+rD684Qxc0YfP/8+uDoe3OOvxcGEBH3qBW1by1cPnovUdzM3HJ49DlRpi9FxDJpVNr09KJrviUG6H4HVmCV5aciohRX1eU/q8/ElxcNnnOULH5n8bHvWFofHvtUTvns8CBiWjec/qsMKq8WOb29Prjufcr+G6oPnX38QJr+dqR4kTSA6xmsFfGt/uGxl4ri+tYWA0Njr885PhreNlh5KeJzcfHaPZKAHlhxHcj/aMfm038dkb8hrq4YoR9YpOaPBpaPPVYYEYuHx+5T1po/iJyfIg1aqVHLX4iIbZLohnEyvbA+Exf2r1x/gjAi+odGnx5RfDdHvqc0gP2Yn3I+pz48et7iY9+xdNaPmSveebv60LLP5sh/GxHJx6P6ypTOlQL0huJA/4cpkt0F3eOIXOTP1AfXvXH27jJYW9SH1r2szPlbEXnYR4KW2ziyOyL/pyC6RIoTUrP8Tn147IWz9kJxwjn99cHR96aIf40ID2sGblmOJ5fFzPcHhkbvN1sjqA+NPjGVe38cEY/xgega09N79n5ODNAbDrjAaubaJyOiKbIuOrYpvarejB/3D44+bDb94ouXr793fWjZNyPSWyNijo8CbZzcf1IIXaU/cn5f/9Do+UuG1i+fbYuwXTuaP3bLIHBQUqzIEd+uD41+qH7c2w6fNXPLY9+xtD40tiEi/iMijvBB6KKpWc7/EZeesVMS0BsOuMDaPnnKFRH5myLrOitTii8PDI6+o9cnGvXj3nZ4fWj0PWVRfj8i7u/Q026NGPhCRExJotvWY/HoZpT/Vx8afXmv71rtX37WXQaGRr903SJsuaMP3Mr1w5/G3rk/2beLNffwbXRri/rQur8oazM/i8gvdui78RrvGaXQaxegA5ZT+oTIuvM45xQvib1zfzkwPHZ6DL6/t97CN/j++QNDo6fG3rk/j4i/ONjPNRwyky/cFRH/LoiuVI+It9Rn4uL+4bGn9dqCbF/BP/bWVNT+N0c80uEGDoEjIuf31YfGvl5fse6BvfbLLRpe98iBocMujEjviYjbOdxdaaoR/eeLAXrHQS3058S8j+WIHWLrWktyzmfWi+mNA4OjI91eZC0d3rC4Pjz2qnpqTOSIsfAKY6rhn0XQxVKsSDl/cmBo/UX9w6NP7fYia8nQ+uX9Q2Ojee/czRH5ZeG2auDQe1CU6Zv1oXVf3fcSoe4eN/tXjD2iPrTuq0VOX/Jyi6736eu+XAR6xEEVWFvHV21LKbzFodvlfIecYl09NSYHhkZft+CYM+/QTT/+wuVn3b4+vO7NM3n3JZHzGyPiKAeVqmhMjHw9Iv1UEl0+TEa+Z8rxb/WhsZ/0D6075fDj31zvpp9/0fDY3epD6z7cjHJjirw6RSx0VIHWSg/NRf7cwND6i/oH1z07Tlrb1zU/+uD759cH1/1ZfWj0e6nM/x2RHup49sKSJ94rBegtB39hSfk9kdMLRNcTjswRr+mb0/eq+tDoZ3NKH54u+z9bxW8qlgyetaRZ9D0l5/zsFPHIyFFz+KjuHL7858jp7YLoCXdOkdbv3rPgDfWh0XNzjo9MT275esTasmo/6IIV59yxr5x5Vk7pOSnne3u7O9CR0iDyPVNKH69vXjaahkbPzUX6eGPTqd+KSLlqP+vA8Nn3LXPxvBSN50QkD2fvLT+fnlz9tYgRSUAPOegCq7Fpzbfqg6MXR4oTxNdTn4MnpZyfVE+Na/PQ6Gcj58/Uyjlf2HbJS7d26odaNHjOUbWi+fCc41nNiMdEzvMsx+iOM2rvh2Lv3DdExDxh9IyBiPiLlOIvBoaW/aqM0U8XOX92KgYu6GTpPzC87k5ljj9OkZ4dZfNBESlVb4kIzFJH5IhTosyn1IfGNkce+1iK/B9Th827MC5ctbcjP9FJa/v6Jw97cEr5cRHxpJzjOHPLnvWeKpamwG1cZt2afylFek+OfLb4etKSFPHcSOm5ZW1mpj40+sPI+RuR4+u1VP7w2snTJ1u5EMtlelBEfmik9KCI5nHZZYcu1PjFy64eGB47L+f8bGn0nhxxxxRxak7p1P5o7EiDo99JRf56yulb5Zw9FzV+8bKrW/Mnn1tbuPyKu/eleEhO8ZCIeHDOcZTFF9AFlkfKr84Rr65v2b09DY1+p8zp65HLrw3snf/dyy9f1ZJn7C4ZPGvJTNTukVI8KHJ6UGzOD46UBxyOnrc75uz5oBig99y6e9Nn9n445vS9MSIWiLDnPx/3jZTuGylOb0Yt6kOj2yLix5Hil7lMk0XKEyniiiiLq1PauyWX87YVfbVy6/iqbRERccyZCwYiFqQiLWnOnbOglpvz80xxuzLlY1OKFZFjRaRYERErco7+fXe8WI7R/cpm+e5UJAVWj0sRCyPFI3JOj8gREXvnRn1o9Ioc+f+KFJtyFJtzWU5Gjitzka8pa8WWuXv6ts/fvX3PlVe+fHtExOHHv7m+q7lgfm1Psz5Tq9VruZyfi74jUplXlClWpBwrIuUVEVcMRcRcvT7Q5RbliEemlB8ZKUVj3u6yPjT6q8ixKVJsipw25iI2pVT+ujmTds7JzW0zxdwdc4u+ndefXy4u5s/fm5sLirnlsmimwyLFESnyYI60PKVYkXOc0Iw49v/PKm3GmTVyjk9Nt+zLJKDTBcVBm7r0jC0Dw+s+mHP6KxHOOosj4kGR40Ep5cgRkSMiijIiahG1mSjzTNSHRn93Ebnur9Qso4wUUeTfVVS6KnrU9OY1X+kfHr0o5bi3NGado1Kko3KOP4rIkVKKSBEpUhTNiLI2EzsWzvv/4+TuPfuGwrJWiyIicioichk5hU4fmA2KiFgeKZZHxCMi5X1dU05RKyLKqEURzZjJzRvML8uY2fdA1DLF9SeW6brJp6FzVtsgAujdC8atk/reHhFNEQLc7AD7NikAALTN/+57eDvQo+urW2dq0ykbI+I8EQLczDg5ftS5kWOTJAAAWi+l9Bb3i0LvKm7Tv5zSm0UIcHOe2Uwpr5MDAEDLTUwde825YoDedZsKrG3jq38QKb4iRoD96989/70R4UGiAAAtlFO8NS5YOyMJ6F3Fbf0PpDK/RYwA+3f55at2pJTPkQQAQMtcOb1n5gNigN52mwusqck150eOb4kS4GYG2rI8OyK2SAIAoAVSXheXnrFTENDj66pD8R/Jkf5WlAD7d+3k6ddGDrtVAQAOvS19Mf8dYoDed0gKrOnJ1RdExPniBNi/xszMaERcKgkAgEPqDVvHV20TA/S+4lD9h8ooXxkRpUgB9uPSM3bmHK8XBADAoZthNfbO2H0Fs8QhK7C2T5z2o5zjX0QKsH/Tk0f9c0T6qSQAAG67FPG3nn0Fs0dxKP9jtb74u4jYK1aA/XlmM0e5Vg4AALfZj6YmtnxEDDB7HNICa9vGkU0RaZ1YAfZvemLkXyPiAkkAANx6qUyviljrETYwixSH+j84f2Hx2vCgYoCbm27lXOTVYbcqAMCtm01FfGlq8+rPSwJml0NeYF118SnTOeJ00QLs3/SmNT+2WxUA4FbZnXNaLQaYfYpW/EenJ0Y+GTl9TrwA+1ffPfcfImKzJAAADlxK+U2NydU/kwTMPkWr/sOpVqyJiF0iBripyy9ftSNHerkkAAAO2C+nyoE3iQFmp5YVWFObTtmYczK4ANyM6YnV/xoR50sCAOD3K1N+SUy+0CYJmKWKVv7Hpw+b+4aI+IGYAfZvZu/MX0TEVkkAANyS/JHt42v+Ww4we7W0wIoLV+3NRX5hROwWNcBN7bz0jMtS5DWSAAC4Wb/Jxdy/FgPMbkWr/4B9b9vKrxE1wP5NTaz5cIo4VxIAAPuT/nJ600t+IweY3Yp2/CGNia1nRsQF4gbYvzxnzykRcYUkAACuL727MbH6P+QAFO35Y9aWtdx8YURMiRzgphq/eNnVKacXRESWBgBAREQanzd3x8vkAES0rcCKuHby9MnIeUTkAPs3Nbn6CynHuyQBABAzKefnXv3zVzZEAUS0scCKiGhMrvlgRLxH7AD7N9UXp0fE9yUBAMxmKeV/mpoc+Y4kgN8q2v0HNmqx2uIM4GZsHNk9U9SeFhFXCwMAmJVyfHnq2K2vFwRwfW0vsGLjyO6+lJ9ucQawfzs3nfKrMuVnR0RTGgDAbJIjLsl98ey4YO2MNIDrKzrxh24dX3NJmeI5FmcA+7d9fM1/5xz/KAkAYBbZVUvpadMbR64SBXBjRaf+4O3jI1/KOb3OIQDYv+nJLa+PnD4nCQBgVsjxkm3jq38gCGB/ik7+4dOTp/5jRP6IwwCwP2vLefN2PDsi/lcWAEAvSxHnNCZHPiAJ4OYUnf3jU27kgb+MiG84FAA3dfXPX9mYKWpPjIjLpQEA9KivTi3ccoYYgFtSdPwnmHzhrthTPDkifu5wANzUzk2n/KpZxhMiYloaAEBPSfGTotn3lLh47R5hALekqMIP0bjs1GuKZvNxEfEbhwTgpnZsHvlhKtMzI8IbeQCAXnF5LReP23bJS7eKAvh9iqr8INsuOX08pfIJOWKHwwJwU1ObV38+Ir9EEgBAL0xtytx8/LUTp24WBXAgiir9MFPjp30/RTw7ImwfBdiPxsSaf845rZUEANDF9pQpP3X75On/IwrgQBVV+4EaEyP/mVM6OdwmA7Bf05OrXxs5vVESAEAXKlNKL9w+vua/RQEcjKKKP9T0+Op/yxHPCSUWwH41Jlf/TaT8FkkAAF0k55xOmRpf/TFRAAerqOoPNj0x8snI+S8ionSYAG6qMT7yqhT5HZIAALpAzilOmZ5c/S5RALdGUeUfrjG55oOR4i8jIjtUADeW8tTEyKmRYoMsAIAKyzmlU6fHR94pCuDWKqr+AzbGR94Xkf8qIpoOF8CNpdwY3/JSJRYAUFH7dl6Nr7ZrHLhNim74IRsTa96dI58c3k5INXxVBFTL2rIxvvolkfObZEEF7Ikc3xIDABGRc+TVdl4Bh0LRLT/o9MSac3ORHhsRDYeNzkkfzJHOkQMV/GzmxuSaV6cca8Jt13R2pTISKb4tCYBZbyZS/MX0xBpzZ+CQKLrph53etPrLKeJREXGNQ0cHfLNRy6vEQJVNTY6MpogXhLe40gE55XXTkyNuZwWY7deDiB0p5SftexwMwKFRdNsPPDUx8r0yykdExBUOH200mWvxlNg4slsUdME4+aEc8Zxw2zXtXaz81/SxW18mCajGvCUizFnolGuKHI+cGl/zOVEAh1LRjT/09onTflTLzQdEjosdQtpga64VT5jeOHKVKOgW0xMjn8w5/jjsWKU9/m9OmvfMuGCtnX9QBSn9MKV4WiixaPdHL+JXuWw+ZGpy5DvSAA61olt/8GsnT5+c0xcPjIjzHUZaaFeO8snTG09VltJ1pidHvppSfkBE/EIatHKxMrN35rFbx1dtkwZUx9T4yGcjFU8Pu3Fpn//bW9QeNL359J+KAmiFopt/+C0bR6YaE0c9IUeMOpS0QJkjPX964rSviYLuXcCs+WXR7Lt/5PiyNGiBbc0on7Dz0jMuEwVUT2P81M+kMj057MSi1VJ8vi/Ne8jOTaf8ShhAqxTd/ys8szk9MbImRR4JDy3mkF6H82nTE6v/VRJ0u22XvHRr47B5j4mIf5YGh9DOHOWfbJ847UeigOqa2rz686lMT8kRO6RBC+TI6Y2N8S1PsBMXaLWiV36RqYk1YznKR0bErx1WDoG/nZpYMyYGesaFq/Y2Jkb+MkX8WUTsFAi30Z6U4hl2qEKXzJM3r/58inhMRCgYOJR2p4gXNCZX/03E2lIcQKsVvfTLTE+c9rWZvTP3jRzfcmi5tVLk1zUmRt4gCXpyETMx8qEUcVKKsMWfW2tv5PzMqfGRz4oCukdjYuTrRVk8IiK8lIZDYbJI6cFTEyMfEgXQLkWv/UI7Lz3jssZh807Kkeye4VZIb5uaWPP3cqCXTU2MfC/P2XPvFPElaXCQmjny8xqTaz4tCug+2zafelHk9NCImJAGt17+TNo7c+K28dU/kAXQTkVP/lYXrto7PbF6JOf8nLBVmgO+Fqc3NiZWv1wQzAaNX7zs6qmJox6TIr8uIpoS4QDsyRHPnp5Yc64ooIvH/8nVPyujfEBEfF8aHKSZyPGqxsTIn0xdesYWcQDtVvTyLzc9ueYTRZnuFRHfdKi5RSn/zb7792E2eWbzuh2HD4+IzfLgFuxMKT9lemLkk6KA7rd94rQr67vnnRQRdlNygHPldFmO8pGNyZE3R6QsEKATil7/BbdtXj3RmDjqYTmnteEthdxUTpFHGuNr3igKZqvGxMjXa7l5z5TSJ6TBfkznnB43Nb7mc6KA3nH55at2NCaOelpEnCkNbkmK+Je0Z+/dvbgD6LRidvyaz2xOT65+bZTFQyPSuMPOdXblyM/2tkGIuHby9Gunxlc/J0V+fkRMSYR9q5Z0WbOMh05Prr5AGNCbc+TGxMhfpxTPC2+o5aa2phQnT02MPNstg0AVFLPpl21sPvXbC3fsuntOeV1EeNXr7HZVlMUjPMsFbmhqYs2HZ2pxQkT+jDRmvf+dKfL9d2we+aEooMfH/vGRjzbLeFC4nZzrpIgvzdTi7lPjIx+XBlAVxWz7ha+88uXbp8fXnBZl8eBI8RMfgVl5Rf5J0Wzev7H51G8LA25q58aRSxsTa56YUnpuRFwtkVnps/Pm7nzIzo0jl4oCZocdm0d+GHP23McXGLPelkjx51MTq//YNQCommK2/uKNzad+u1HEva97A9deH4XZIUWcO39B7Q+3XXK6W0nh95gaX/2xXIu75hy+fZ09ypzjHxoTW/7k6p+/siEOmGXz41+87OrGxMifpJxOi4jdEpll8+SUPlFGedfG+Mj7PKgdqKK+Wf3bbxzZPRXx9/XBsY/llNeliD/2kehZe1OOV0xNjpwtCjhw0xtHroqIkxcNj76viFgXOe4qlZ51Tcr5eY3JNeeLAmazlKcmY93C5aNfqxXpoxH5LjLpeZMp5VOmxke8rAOotEIEEY3J1T+bnhh5dOT0FA9570m/TDkeqryCW2/7+MiXGkvn3TPlOD0irpVIj8nx5b6U7z2lvAKus2PzyA8buf/ekeLNEdGUSG9e3nPE3zX2ztzVm2aBbqDAup7G5Op/b+T+E3LE30XEdol0/5IsRX7Hwh277zU1OfIdccBtdOGqvVOTI2fnYs7xEfm94WUYvWBnynF6Y3L1o7aOr7lEHMANTL5wV2N85FUp4oGR42KB9IwyIn2wOZOOm54YeX1ceoY3UAJdQYG1nwv19MTI68soV+RIYxGxRyhdaWMRxaOnJtaccuWVL1dGwiE0veklv2lMrPmLXCvuHin+PSI8J6Mr5a/lsnnivt2pnnUC3LypiZHvNQ6bd6+IeFlETEmkq12QUnn/xsTqF+z41erLxQF0EwXWzdg+cdqV0xOrR2q5eXxE+mDYOt0tduWc1jZy/W7bJk79ojigdaY3nnpxY3zkKSmXD4gcX5ZI17gyRfxZY2LkpOnNp/9UHMABuXDV3sbEyNubZfPOEfHh8OVFt/l2mfKjGhMjD58aP+374gC6kQLr97h28vTJxsTqF+RacY+U0idCkVVVZc75Y0Ut/mB6cvVrY/KFu0QC7TE1edp3G5MjjyxT/FFE/ppEqilH7IiU31LLzTtPTYx8yK4r4NbYsfn0XzcmRp5f5ua9I/JnJFLxsT/FRSnFExoTIw/cPr7mvyUCdLM+ERyY6Y2nXhwRz1m8cvQ1ucwvyzm9ICLmS6YCa7Ic5+Va/ofpTWt+LA7onO3jI1+KiC/Vl69/QBTlqyLiiRGRJNNxu3PEhpxrb5yeOOUKcQCHZMyfPP1/IuKJA4Oj988p/iEiHm3Mr5QLUspvbYyPfN4XFkCvUGAdpG0bRzZFxEsWDZ7z2qJonhY5VkXEEsl0xGeLsvj7bZtPvUgUUB2Nzad+OyKe1L9y/QmpWb4iIp4dEXMl03Z7I8X7ZlLtn3ZuOuVX4gBa4boX5Ty2f8W6P0jNOCNSOjki5kmmI5op4t9SSm/dNr76B/v+0RqpAD1DgXUrbZ885YqIeNXRR2/4x8a8XSfnlF6SctxbMq1fkKWIT0Uuz5qaPO274oDqum7n6p8tGjr7FUUUf54jVqWIYyXT+vVkTvn9tWaxbtvm1RPiANoy5u/bCf+iRYPn/E0tlafmyH8VEYdJpi2uiogPFM3mu7Zdcvq4OIBepcC6jS6/fNWOiPjniPjn67ZQvzQinhFuLzzUro6Id8/snXnHzkvPuKyTP0hRxnQukslBi6QcV0uht2yfOO3KiHhDxLlvrg/++gk5pZemiEeF5zAear9Mkcfmzt31gat//spGh3+WLRHGyVbJOTekQGXH/H1f8r7m6KM3vKExb89zIucXRYoHSubQDwUR8bWUYsNUEZ+KjSO7RdJzB/ja5FrawnzztVLowrWiCA69JYNnLWmmvqdF5OdFxEMt0m7TwP3DFOmcRu7/qAezQ+9YsOKcO/Y1mydHiudFxB9I5FYrc8QXixRjU+NbPh+xthQJ3aB/cPRhKcUFkmjVDD+d1xhf/dSq/Dj1wbE7R1G+MHL604i4vQN0m0xETp+IiA81Jlf/TBzArLq8iaANi7RcPjdyfnZE3EMiB2QyIj6Wa8XHrrsFCehhi4ZG71FE/GmOeIZbDA9MTnFRivzR5t7iEzt+tfpyidBt+pePviYV8TpJtGyG/5XG+MgjKvdznbS2r7552WNTxPNyxGMjou5gHZArcsS5qSw+0dh8ync8lB2YvZc32mbx8rGhnOJPcuQ/iRQPDbdwXt/VKfK5uSg+1th06rdcmGG2jpPr751rzT8pc/qTFHEviVxPjk0p5Y/lXHzMt+50u/rQ2J6IPEcSLRouUlwyPT6yvNI/5OD759eL7Y+KsnxKpPiTiDjckbvBKu0nEfkzkdNnGhNHfSvimU2hAIZGOrNIO/YdS3PfzGNymf8oUnp4RAzOsgjKiLgwRT4/F3F+Y9Ptv+vCDFzf0uF1x+6N9PiU4xERcdIsXNzsypG/niJ9IdeK8+1IpXecW6sPXTEjh5bO8C9tjI/csZs+E/2DVz4kpfzEFOkROfLdY/Y9gmMqcvpGivyFVDY/42HsAPu7vFEJi5ePDZW1OClyfnhEPDgihnrw15yMiK+nlM4vi/zF6Y0jVznywIHJadHQurvVcu3hOeVHRMT9I+J2PfZLNiPipznigiLlz/fvmn/BdS8KgZ5yxAnn9O/a0fQg+ta6ojEx0rXPmqrfYf1heV75sMjx8JTiEZHjrj14jK6NyN+ISBekVH5tavzoi3yZC3DLFFhVvXAf97bD05459ylTcd8U+b6R0r0j5zt00a+wJSK+l1J8L0fx/Zxq35ve9JLfOLLAobJvh9Z1Y2QZ940U94qIpV10Af5Vjvy9iPTdnON7CxbVLrzq4lOmHVl6Xf/K0SNSM8wJWjvC/KYxsfrIXvrMFDP5xJzSvSPyvSPSvaO7vuydioiLIuLCnPMPiiIunBof2eiRGQAHPX+mexZrGxY38+7jc467RhF3jojjI8fKiLhDhxZtzYi4JEf8IiJ+WUT+ReTiF6mc+aVtz0AnLBo6+8iUa3eJiDtHUd45crpLijg2RxybIhZ24EfaE5E2Rco/jxy/jIhf5px+mVPzp9snTrvSEWM2WjK0fnkzyklJtFCOaxqTIz192/XiY9+xdKZv771TpONSjhWRYkXkWJEjVnRovN8ZEZfmiPGI+Hmk9PMc5c/L1PeLnZtO+ZUPJcBtp8DqEUce+dZF2+f3HVsr5hxT5vIOkeKwFLEkIpaWOS9NRVoaOQYiYv51h35hRMy7wVwn5WtTjhwRO1LE7hwxk3NsjRRXRcRVKfIVEcVvokxXFXPK32yLuDQ2juyWPtANBo45c1lz7pw71CIfm3M6KnIcFlEujSItTTmWlpGXpigGIvJvX7BRj0jXe9lGbsa+b9EjUkylHM0ceVdE2hoRV0XEFZHzb1KRro4of7M3zbli56YjLndLCNxQfXDszpHyTyXRUtc2JkaWztZffuHys27fl9KxURSH5zIfHimOiEi3ixRHRM6Hp0jzc8SciOi/7l9ZHJGu98ytPBMR193mmmZy5GuLiGtzimsj4tooY2ukfE1K6dfNXP6q2NN3WeOyU6/xsQNoLQUWAABtLBdG71Ur4iJJtHSG32iMjwwIAoBeUogAAIB2qfWlhVJorZyjJgUAeo0CCwCAtilzXiCF1kqhwAKg9yiwAABo3+Qz24HValmBBUAvziFEAABAu+QcdmC1WIqkwAKg5yiwAABomxRuIWy9nOKEtXPlAEAvUWABANA2uXALYTss2b5YzgD0FAUWAABtkzzEvS32uFUTgB6jwAIAoG1y2IHVDnPm1OQMQE9RYAEA0DbJzqC2aNrpBkCPUWABANA2uVCstGWSr8ACoNeubSIAAKBdUtiB1Q5lWbiFEICeosACAKB9cihW2jLJtwMLgF67tgEAQPsoVtqgLDwsH4DeosACAKB9smKlTZN8RSEAvXZtAwCAds0+3drWDtlD3AHotSmECAAAaJtsZ1A7JDvdAOgxCiwAANpJsdIG2S2EAPQYBRYAAO2kWGmD5FZNAHqMAgsAgHZSrLSBHVgA9BoFFgAA7eQWwjbInoEFQI9RYAEA0E52BrVBCrcQAtBbFFgAALRJThExXw5tSNoOLAB6jAILAID2OOas+RGRBNF6qbDTDYDeosACAKAt6nmuXUFtkrMCC4DeosACAKAtZhaUSpU2SR6WD0CPUWABANAWfWWhVGkfZSEAPUWBBQBAW5TZDqy2SXZgAdBbFFgAALRFzXOZ2kfWAPQYBRYAAG1R1pJdQe2jwAKgpyiwAABoz8QzZ6VK+ygLAeiteYQIAABohzLbgdVGykIAeooCCwCANk087cBqozlx0to+MQDQO/MIAABog9KDxdvq8F8vkDcAPUOBBQBAeyaehVsI22nnnnnyBqB35hEiAACgHbKHuLfVHHkD0EMUWAAAtEXyYPG2mnHLJgA9RIEFAEBbZAVWW9X6CrcQAtAzFFgAALRFyqFQaSMPzQeglyiwAABoi1woVNo60c8emg9AD13XRAAAQDvYgdVepYe4A9BDFFgAALSFZ2DJGwBuLQUWAABt4S2Ebc67cAshAL1DgQUAQFtktxC2OW+3EALQOxRYAAC0RU52YLVTCjuwAOgdCiwAANoihR1Y7ZSzwhCA3qHAAgCgLTxUvL1SuIUQgN6hwAIAoC08xL29ciFvAHqHAgsAgHZxC2EbpewZWAD0DgUWAADtMl8E7eQWQgB6hwILAIDWWzk6LyJqgmgjO7AA6CEKLAAAWm7JTNNuoPbP9GUOQA9d1gAAoMX2NPvsBmq3rMACoHcosAAAaLk58zyPqQOUhgD0DAUWAAAt18wKrA6QOQA9Q4EFAEDrJ52lB4p3gAILgN6ZS4gAAIBWKz2PqROUhgD0DAUWAACtn3RmO7A6QGkIQO/MJUQAAECrlTXPwOoApSEAPUOBBQBAOyadCqz2mxex1nwfgF6ZSwAAQGvlbDdQJxx55CLFIQA9QYEFAEDLJQ9x74gdi5PcAegJCiwAAFouFx7i3gl9M3PkDkBPUGABANByKTzEvRNmstwB6A0KLAAAWi67hbAjSgUWAD1CgQUAQMtlbyHszGS/VriFEIDeuKaJAACAVkveQtgRpZ1vAPQIBRYAAC1nB1aHJvvZw/MB6JFrmggAAGi1lOzA6oTs4fkA9AgFFgAALWcHVmcktxAC0CMUWAAAtFxSYHVELtxCCEBvUGABANAOipQOSG4hBKBHKLAAAGi9ZAdWJ2S3EALQIxRYAAC0niKlQ5P9Qu4A9Mg1DQAAWs8thB2Qcyl3AHqCAgsAgHawE6gDUiF3AHqDAgsAgHawE6gDcvYWQgB6gwILAIDWOmltX0T0CaL9kp1vAPQIBRYAAC217NJldgF1SI6swAKgJyiwAABoqd3NUonSKW4hBKBHKLAAAGipvrKmROmU5BZCAHqDAgsAgJZqZrexdZDyEICeoMACAKClanMUWB0kewB6ggILAICWKkvPYeoUbyEEoFcosAAAaPWEU4nSIdkthAD0znwCAABap/QmvI7JykMAeoQCCwCAlkqFZ2B1LPuIBRE5SQKAbqfAAgCgpewC6qgUgx+YJwYAup0CCwCAlkrZc5g6aWBmq/wB6HoKLAAAWsoOrM7aK38AeoACCwCAlspZgdJJc+bNkz8AXU+BBQBAS6XwEPdOapZ73UIIQNdTYAEA0FI5JQVKB9XsgAOgByiwAABoqeQZTB1VZgUiAN1PgQUAQEvl8BbCjk74awpEAHrgeiYCAABaKbmFraPKKOQPQNdTYAEA0OoZpwKlk/Hn0g44AHpgOgEAAK2U3ULY2fgViAB0PwUWAACtpkDpoOQh7gD0AAUWAACtpkDpoFxkBSIAXU+BBQBAa3mIe0d5iD4AvUCBBQBAayUFSidlbyEEoAcosAAAaDW3EHZQCm8hBKD7KbAAAGg1O4A6KLuFEIAeoMACAKCF1hYRMU8OnZOStxAC0P0UWAAAtMyRRy6y+6fDsh1wAPQABRYAAC2zvT7P7p8Oy5EVWAB0PQUWAAAtM6dUnnRaCrcQAtD9FFgAALTMTFZgdVpObiEEoPspsAAAaJlmWdj902EpJwUWAF1PgQUAQMvU+uzA6rysRASg6ymwAABomTJ7/lIFKBEB6HoKLAAAWjfZzMqTClAiAtD9cwoRAADQKjncQlgBjgEAXU+BBQBAyyS3EFZBLU5YO1cMAHQzBRYAAC2TC7t/qmDpzts7DgB0NQUWAAAtk7LnL1XB7uYOxwGArqbAAgCgZbLnL1XCHA/TB6DLKbAAAGiZpMCqhObcOY4DAF1NgQXw/9q7mxi9qjKA48+570xbhplBSoOWGGlpjUYMiWkT0WjSLYm6UENcUBaVlmi/QoQF0kWTBg3BCAwothJjKEsx8QM/9hLRKDsjQTpTMFgLGtJ5aUs7897jxhgkAhbunZ4z8/st+ZiP50xyT/45574A9Cf7FMIiNv3toiuEANT9LDMCAAD62236FMIStK4QAlD7lsIIAADojXBSxqY/C4kAVP4sMwIAAHoknBQgC4kAVE7AAgCgT8JJAdKgsQ4AVE3AAgCgP07+lLEMuXUSDoCqCVgAAPQnuUJYxjIIiQDUTcACAKBPwkkBcnaFEIC6CVgAAPRJOClAalwhBKBuAhYAAH0STgqQhUQAKidgAQDQJ+GkAK4QAlA7AQsAgD45gVWAFK4QAlA3AQsAgJ7kFBFrzKGAlchOwgFQNwELAIB+vP++NRGRDOLiS40rhADUTcACAKAX095/VYycsyuEAFRNwAIAoBcLa8ZEk0KkyGIiAFUTsAAA6MV4K5qUI4mJAFRNwAIAoBejLGAVw0vcAaicgAUAQC8GuXHqpxQpCVgAVE3AAgCgF60TWAXxEncA6iZgAQDQz0Zz4L1LBRETAah7X2EEAAD0ofXepZKIiQBUTcACAKCnjaYrhAUZj20Hx4wBgHr3FQAA0IM2u0JYknUnLhEUAaiWgAUAQF8bTcGkIK8tTlsPAGreVwAAQPdy4wphScbakfUAoFoCFgAAvUhe4l6UxXbBlU4AqiVgAQDQixzegVWSQYwLigBUS8ACAKAXyacQFqUdjARFAKolYAEA0IucnMAqauOfB4IiAPU+x4wAAIA+eAdWWVon4gComIAFAEAvcghYRa1Hbp2IA6BaAhYAAL1IEYJJSevRNIIiANUSsAAA6IUTWIWthxNYAFRMwAIAoBfZCayiJEERgIoJWAAA9EIwKUsOVwgBqJeABQBAXwSTgvhUSABqJmABANAXVwgLkhvvwAKgXgIWAAB9ceKnICm7QghAvQQsAAD6IpgUxQksAOolYAEA0L1rD66KiIFBFEVQBKBaAhYAAJ17z+nLnPYpjSuEAFRMwAIAoHPnfeJdeVIWFQGoloAFAEDnxgWsAiVrAkC1BCwAADo3Gm+c9ilOFrAAqJaABQBA95vMLJYUSFQEoN69hREAANC1tnUCqzjJFUIA6iVgAQDQwybTCaziZC9xB6DmvQUAAHQse4l7iawJANUSsAAA6FwaJKd9yrM64qD9PwBV8gADAKBz2UvcS5Suumr9GmMAoEYCFgAAnUvZCawSDSeH1gWAKglYAAB0LnvfUpEWR5dYFwCqJGABANC51LhCWKIxVzsBqJSABQBA55zAKlPbLrhCCECVBCwAADqXvQOrzM1/HhcWAajzGWYEAAB0LYWraiVqByNhEYAqCVgAAHTOCaxSN/8DYRGASp9hAADQsdR4B1aJspe4A1ApAQsAgM7lLGCVKOXWyTgAqiRgAQDQuRQhlBQoRyMsAlAlAQsAgD4IJSVu/l3tBKDWZ5gRAADQOVcIi9S6QghApQQsAAC6l1whLHPz7wohALU+wwAAoHtCSYFy+BRCAOokYAEA0AcnsAqUUrYuAFRJwAIAoA9O+hQoZ1cIAaiTgAUAQLe2HRyLiHGDKE9yhRCASglYAAB0at2JS0SSQuVwhRCAOglYAAB06uz51SJJoVIkcRGAKglYAAB0ajy7plaq7OX6AFRKwAIAoFOL2QvcS+UEFgC1ErAAAOjUYKxxyqdQ2UvcAaiUgAUAQKdaJ7CKlVwhBKBSAhYAAN1uMHMSSQqVQ1wEoNL9hREAANCl1kvci+Ul7gDUSsACAKBTTvmUK0WsicjJJACojYAFAECnUuMKYdH7/w0/XG0MANT3AAMAgA5lVwiLdll71voAUB0BCwCATiVXCIu2kEfWB4DqCFgAAHQq+xTCoo2taqwPANURsAAA6FQKVwhLNsqt9QGgOgIWAACdSim9aArFOjW2uHjaGACojYAFAECn5uf2PZRyviEiTphGUX7bDGLLqRdumzUKAGqTjAAAgD5Mbnr4ytQufD8iPmcaF9VCSvkb87PrD0XcODIOAGokYAEA0KvpjTM354jvRMSkaSz5dv/PTZtuOvX8nqfNAoCauUIIAECv5uf2Pdq06bqIeNI0lkyOSEemzq3aKl4BsBw4gQUAwNLYdnBs6vjar0WKQxExbiC9OZlSfHl+dt8TRgHAciFgAQCwpKY33P/xnJqjEfFB0+hafjzOD24dvrjnn2YBwHIiYAEAsOSuuurwxPzqc99MEftMoxPzEfmO4dz+I0YBwHIkYAEAcNFMX/3gDbnJP4iI95nGO/ZUagbb54/tfs4oAFiuBCwAAC6qyU0PX5nahUci4rOmcUEWU8p3z8+uPxRx48g4AFjOBCwAAIowvXHm5hzx3Yi41DTe1jNNk286dWz/H40CgJWgMQIAAEowP7fv0chpa0T8wTTeVI5IRybOnNsqXgGwkjiBBQBAWbYdHJt+4fIDOacDETEwkP84Gam5ZTi75+dGAcBKI2ABAFCk6Q0z1+cURyNi84ofRo4fx6rztw6fvf0f/jIAWIkELAAAirXuQ/dMnTs/8a2IvGuFjmAYkW8fzu0/4q8BgJVMwAIAoHiT18x8PuU4HBHrVtCv/VRqBtvnj+1+zl8AACudgAUAQBUu3Xj/e5tIj0SkzyzzX3UxpXz3/Oz6QxE3jqw8AAhYAABUJaepjTM7I9K3I+LSZfgLPtOktP3U7F6fxAgAryNgAQBQnakND344Un4sIrYso1/r6MSZc185efKO01YYAP6bgAUAQJ22HRybfuHyAzmnAxExqPg3eSkibhnO7fuZRQWA/03AAgCgatMbZq7PKY5GxOYKd+O/bNvBjtPHd//dSgLAWz0yAQCgcms3z0wvjNK9EXlXDT9vjjjT5PT1+eN7H7B6APD2BCwAAJaNyWse/ELK+XBEXFHwFvx3KbXb52f3/8WKAcD/pzECAACWi1dn9z7eRnttRDxR4I+3GCnuGa5d9WnxCgAujBNYAAAsQzlNbZzZmSPdlyImCviB5qJJ24fH9j5pbQDgwjmBBQDAMpTycG7/kWhHW3OKpy/yD3N0zcTgOvEKAN7Fk90IAABY1rYcHp9+5bW7ck4HImKwhN/5pYi0czi396cWAQDeHQELAIAVYerqhz4RqT0aKTYtwbf71agd7Tjz/G0nTB4A3j0BCwCAFWPt5pnphVG6NyLv6ulbnE053Tl/fM9MRMomDgDdELAAAFhxJjfOfDFFfC8irujwy/4+UrN9OLvnWRMGgG55iTsAACvOq3P7ftTmwUcjp1908OUWI8U9w7WrPyVeAUA/nMACAGAFy2lq48zOHOm+FDHxDr7AXKR883B2/2/MEgD6I2ABALDiTX5g5iMxiMdSxMcu4H87umZi8NWX/7T7VRMEgH4JWAAAEBGx5fD49Cuv3ZVzOhARg7f4L1+OnHcOj+//iaEBwNIQsAAA4HWmNj3wyWiboxH5mjf+uxzx63Yx7Tjz171/MykAWDoCFgAAvMHazTPTC6N0b0Te9e9/dDbldOf88T0zESmbEAAsLQELAADexOSGB74UKXakNNjjEwYBAAAAAAAAAAAAAAAAAAAAAAAAAFaOfwFQk0s5lQiD3QAAACV0RVh0ZGF0ZTpjcmVhdGUAMjAyMS0xMi0yNVQyMzozMjowMCswMDowMGWxbAsAAAAldEVYdGRhdGU6bW9kaWZ5ADIwMjEtMTItMjVUMjM6MzI6MDArMDA6MDAU7NS3AAAAAElFTkSuQmCC;" parent="Yl6aDrCVdsE_vcPUF4tV-1" vertex="1">
          <mxGeometry x="345.2" y="57.269999999999996" width="61.8" height="45.47" as="geometry" />
        </mxCell>
        <mxCell id="J8cX9gx4JbQNp0mi-t6i-1" style="edgeStyle=orthogonalEdgeStyle;rounded=0;orthogonalLoop=1;jettySize=auto;html=1;" edge="1" parent="Yl6aDrCVdsE_vcPUF4tV-1">
          <mxGeometry relative="1" as="geometry">
            <mxPoint x="314" y="110" as="sourcePoint" />
            <mxPoint x="314" y="160" as="targetPoint" />
          </mxGeometry>
        </mxCell>
        <mxCell id="J8cX9gx4JbQNp0mi-t6i-9" value="Cross-cutting concerns" style="rounded=0;whiteSpace=wrap;html=1;labelBackgroundColor=none;fillColor=#B2C9AB;strokeColor=#788AA3;fontColor=#46495D;rotation=-90;" vertex="1" parent="Yl6aDrCVdsE_vcPUF4tV-1">
          <mxGeometry x="-12.5" y="152.5" width="265" height="60" as="geometry" />
        </mxCell>
        <mxCell id="Yl6aDrCVdsE_vcPUF4tV-18" style="edgeStyle=orthogonalEdgeStyle;rounded=0;orthogonalLoop=1;jettySize=auto;html=1;entryX=0.5;entryY=0;entryDx=0;entryDy=0;" parent="1" source="Yl6aDrCVdsE_vcPUF4tV-6" target="Yl6aDrCVdsE_vcPUF4tV-14" edge="1">
          <mxGeometry relative="1" as="geometry" />
        </mxCell>
        <mxCell id="Yl6aDrCVdsE_vcPUF4tV-6" value="Ecart.Core" style="rounded=0;whiteSpace=wrap;html=1;labelBackgroundColor=none;fillColor=#f8cecc;strokeColor=#b85450;" parent="1" vertex="1">
          <mxGeometry x="520" y="447" width="120" height="60" as="geometry" />
        </mxCell>
        <mxCell id="Yl6aDrCVdsE_vcPUF4tV-10" style="edgeStyle=orthogonalEdgeStyle;rounded=0;orthogonalLoop=1;jettySize=auto;html=1;exitX=0.5;exitY=1;exitDx=0;exitDy=0;" parent="1" source="Yl6aDrCVdsE_vcPUF4tV-4" edge="1">
          <mxGeometry relative="1" as="geometry">
            <Array as="points">
              <mxPoint x="579" y="270" />
            </Array>
            <mxPoint x="579" y="370" as="sourcePoint" />
            <mxPoint x="580" y="450" as="targetPoint" />
          </mxGeometry>
        </mxCell>
        <mxCell id="Yl6aDrCVdsE_vcPUF4tV-11" style="edgeStyle=orthogonalEdgeStyle;rounded=0;orthogonalLoop=1;jettySize=auto;html=1;entryX=0;entryY=0.362;entryDx=0;entryDy=0;entryPerimeter=0;" parent="1" source="Yl6aDrCVdsE_vcPUF4tV-4" target="-MbyYuFJOytPRvi4rKHy-29" edge="1">
          <mxGeometry relative="1" as="geometry" />
        </mxCell>
        <mxCell id="Yl6aDrCVdsE_vcPUF4tV-14" value="" style="swimlane;startSize=0;fillColor=#dae8fc;strokeColor=#6c8ebf;" parent="1" vertex="1">
          <mxGeometry x="80" y="627" width="600" height="80" as="geometry" />
        </mxCell>
        <mxCell id="Yl6aDrCVdsE_vcPUF4tV-15" value="" style="image;sketch=0;aspect=fixed;html=1;points=[];align=center;fontSize=12;image=img/lib/mscae/Cache_Redis_Product.svg;" parent="Yl6aDrCVdsE_vcPUF4tV-14" vertex="1">
          <mxGeometry x="360" y="17" width="50" height="42" as="geometry" />
        </mxCell>
        <mxCell id="Yl6aDrCVdsE_vcPUF4tV-16" value="" style="editableCssRules=.*;html=1;shape=image;verticalLabelPosition=bottom;labelBackgroundColor=#ffffff;verticalAlign=top;aspect=fixed;imageAspect=0;image=data:image/svg+xml,PHN2ZyB4bWxucz0iaHR0cDovL3d3dy53My5vcmcvMjAwMC9zdmciIHhtbG5zOnY9Imh0dHBzOi8vdmVjdGEuaW8vbmFubyIgd2lkdGg9IjE4LjMxOTk5OTY5NDgyNDIyIiBoZWlnaHQ9IjIwLjAwMDAwMTkwNzM0ODYzMyIgdmlld0JveD0iMCAwIDE4LjMxOTk5OTY5NDgyNDIyIDIwLjAwMDAwMTkwNzM0ODYzMyI+JiN4YTsJPHN0eWxlIHR5cGU9InRleHQvY3NzIj4mI3hhOwkuc3Qwe2ZpbGw6IzY2OWRmNjt9JiN4YTsJLnN0MXtmaWxsOiM0Mjg1ZjQ7fSYjeGE7CS5zdDJ7ZmlsbDojYWVjYmZhO30mI3hhOwk8L3N0eWxlPiYjeGE7CTxkZWZzPiYjeGE7CQk8ZmlsdGVyIGlkPSJBIiB4PSI0LjY0IiB5PSI0LjE5IiB3aWR0aD0iMTQuNzMiIGhlaWdodD0iMTIuNzYiIGZpbHRlclVuaXRzPSJ1c2VyU3BhY2VPblVzZSIgY29sb3ItaW50ZXJwb2xhdGlvbi1maWx0ZXJzPSJzUkdCIj4mI3hhOwkJCTxmZUZsb29kIGZsb29kLWNvbG9yPSIjZmZmIi8+JiN4YTsJCQk8ZmVCbGVuZCBpbj0iU291cmNlR3JhcGhpYyIvPiYjeGE7CQk8L2ZpbHRlcj4mI3hhOwkJPG1hc2sgaWQ9IkIiIHg9IjQuNjQiIHk9IjQuMTkiIHdpZHRoPSIxNC43MyIgaGVpZ2h0PSIxMi43NiIgbWFza1VuaXRzPSJ1c2VyU3BhY2VPblVzZSI+JiN4YTsJCQk8Y2lyY2xlIGN4PSIxMiIgY3k9IjEyLjIzIiByPSIzLjU4IiBmaWx0ZXI9InVybCgjQSkiLz4mI3hhOwkJPC9tYXNrPiYjeGE7CTwvZGVmcz4mI3hhOwk8ZyBjbGFzcz0ic3QwIj4mI3hhOwkJPGNpcmNsZSBjeD0iMTYuMTMiIGN5PSI2LjIxIiByPSIxLjcyIi8+JiN4YTsJCTxjaXJjbGUgY3g9IjIuMTkiIGN5PSI2LjIxIiByPSIxLjcyIi8+JiN4YTsJCTxjaXJjbGUgY3g9IjkuMTYiIGN5PSIxOC4yOCIgcj0iMS43MiIvPiYjeGE7CTwvZz4mI3hhOwk8ZyBtYXNrPSJ1cmwoI0IpIiB0cmFuc2Zvcm09InRyYW5zbGF0ZSgtMi44NCAtMikiPiYjeGE7CQk8cGF0aCB0cmFuc2Zvcm09Im1hdHJpeCguNSAtLjg3IC44NyAuNSAtNC41OSAyMC41MykiIGQ9Ik0xNC42OSAxMC4yMmgxLjU5djguMDRoLTEuNTl6IiBjbGFzcz0ic3QxIi8+JiN4YTsJCTxwYXRoIHRyYW5zZm9ybT0icm90YXRlKDMzMCA4LjUyMyAxNC4yNDQpIiBkPSJNNC40OSAxMy40NWg4LjA0djEuNTlINC40OXoiIGNsYXNzPSJzdDEiLz4mI3hhOwkJPHBhdGggZD0iTTExLjIgNC4xOWgxLjU5djguMDRIMTEuMnoiIGNsYXNzPSJzdDEiLz4mI3hhOwk8L2c+JiN4YTsJPGcgY2xhc3M9InN0MiI+JiN4YTsJCTxjaXJjbGUgY3g9IjkuMTYiIGN5PSIxMC4yMyIgcj0iMi43OCIvPiYjeGE7CQk8Y2lyY2xlIGN4PSIyLjE5IiBjeT0iMTQuMjUiIHI9IjIuMTkiLz4mI3hhOwkJPGNpcmNsZSBjeD0iMTYuMTMiIGN5PSIxNC4yNSIgcj0iMi4xOSIvPiYjeGE7CQk8Y2lyY2xlIGN4PSI5LjE2IiBjeT0iMi4xOSIgcj0iMi4xOSIvPiYjeGE7CTwvZz4mI3hhOzwvc3ZnPg==;" parent="Yl6aDrCVdsE_vcPUF4tV-14" vertex="1">
          <mxGeometry x="282" y="19" width="36" height="40" as="geometry" />
        </mxCell>
        <mxCell id="Yl6aDrCVdsE_vcPUF4tV-17" value="" style="image;sketch=0;aspect=fixed;html=1;points=[];align=center;fontSize=12;image=img/lib/mscae/Key_Vaults.svg;" parent="Yl6aDrCVdsE_vcPUF4tV-14" vertex="1">
          <mxGeometry x="200" y="17" width="48" height="50" as="geometry" />
        </mxCell>
        <mxCell id="Yl6aDrCVdsE_vcPUF4tV-22" value="Legend" style="shape=table;startSize=30;container=1;collapsible=0;childLayout=tableLayout;fontSize=16;align=left;verticalAlign=top;fillColor=none;strokeColor=none;fontColor=#4D4D4D;fontStyle=1;spacingLeft=6;spacing=0;resizable=0;" parent="1" vertex="1">
          <mxGeometry x="690" y="30" width="150" height="140" as="geometry" />
        </mxCell>
        <mxCell id="Yl6aDrCVdsE_vcPUF4tV-25" value="" style="shape=tableRow;horizontal=0;startSize=0;swimlaneHead=0;swimlaneBody=0;strokeColor=inherit;top=0;left=0;bottom=0;right=0;collapsible=0;dropTarget=0;fillColor=none;points=[[0,0.5],[1,0.5]];portConstraint=eastwest;fontSize=12;" parent="Yl6aDrCVdsE_vcPUF4tV-22" vertex="1">
          <mxGeometry y="30" width="150" height="30" as="geometry" />
        </mxCell>
        <mxCell id="Yl6aDrCVdsE_vcPUF4tV-26" value="Software System" style="shape=partialRectangle;html=1;whiteSpace=wrap;connectable=0;strokeColor=#82b366;overflow=hidden;fillColor=#d5e8d4;top=0;left=0;bottom=0;right=0;pointerEvents=1;fontSize=12;align=left;spacingLeft=10;spacingRight=4;" parent="Yl6aDrCVdsE_vcPUF4tV-25" vertex="1">
          <mxGeometry width="150" height="30" as="geometry">
            <mxRectangle width="150" height="30" as="alternateBounds" />
          </mxGeometry>
        </mxCell>
        <mxCell id="Yl6aDrCVdsE_vcPUF4tV-31" value="" style="shape=tableRow;horizontal=0;startSize=0;swimlaneHead=0;swimlaneBody=0;strokeColor=inherit;top=0;left=0;bottom=0;right=0;collapsible=0;dropTarget=0;fillColor=none;points=[[0,0.5],[1,0.5]];portConstraint=eastwest;fontSize=12;" parent="Yl6aDrCVdsE_vcPUF4tV-22" vertex="1">
          <mxGeometry y="60" width="150" height="30" as="geometry" />
        </mxCell>
        <mxCell id="Yl6aDrCVdsE_vcPUF4tV-32" value="External Component" style="shape=partialRectangle;html=1;whiteSpace=wrap;connectable=0;strokeColor=#b85450;overflow=hidden;fillColor=#f8cecc;top=0;left=0;bottom=0;right=0;pointerEvents=1;fontSize=12;align=left;spacingLeft=10;spacingRight=4;" parent="Yl6aDrCVdsE_vcPUF4tV-31" vertex="1">
          <mxGeometry width="150" height="30" as="geometry">
            <mxRectangle width="150" height="30" as="alternateBounds" />
          </mxGeometry>
        </mxCell>
        <mxCell id="Yl6aDrCVdsE_vcPUF4tV-33" value="" style="shape=tableRow;horizontal=0;startSize=0;swimlaneHead=0;swimlaneBody=0;strokeColor=inherit;top=0;left=0;bottom=0;right=0;collapsible=0;dropTarget=0;fillColor=none;points=[[0,0.5],[1,0.5]];portConstraint=eastwest;fontSize=12;" parent="Yl6aDrCVdsE_vcPUF4tV-22" vertex="1">
          <mxGeometry y="90" width="150" height="50" as="geometry" />
        </mxCell>
        <mxCell id="Yl6aDrCVdsE_vcPUF4tV-34" value="External Software System" style="shape=partialRectangle;html=1;whiteSpace=wrap;connectable=0;strokeColor=#6c8ebf;overflow=hidden;fillColor=#dae8fc;top=0;left=0;bottom=0;right=0;pointerEvents=1;fontSize=12;align=left;spacingLeft=10;spacingRight=4;" parent="Yl6aDrCVdsE_vcPUF4tV-33" vertex="1">
          <mxGeometry width="150" height="50" as="geometry">
            <mxRectangle width="150" height="50" as="alternateBounds" />
          </mxGeometry>
        </mxCell>
      </root>
    </mxGraphModel>
  </diagram>
</mxfile>
